<?xml version="1.0" encoding="UTF-8" standalone="no"?>
<svg
   xmlns:dc="http://purl.org/dc/elements/1.1/"
   xmlns:cc="http://creativecommons.org/ns#"
   xmlns:rdf="http://www.w3.org/1999/02/22-rdf-syntax-ns#"
   xmlns:svg="http://www.w3.org/2000/svg"
   xmlns="http://www.w3.org/2000/svg"
   xmlns:sodipodi="http://sodipodi.sourceforge.net/DTD/sodipodi-0.dtd"
   xmlns:inkscape="http://www.inkscape.org/namespaces/inkscape"
   height="230.35384"
   viewBox="0 0 33.551305 26.994591"
   width="286.30447"
   version="1.1"
   id="svg33"
   sodipodi:docname="advice - rotated.svg"
   inkscape:version="1.0 (4035a4fb49, 2020-05-01)">
  <metadata
     id="metadata39">
    <rdf:RDF>
      <cc:Work
         rdf:about="">
        <dc:format>image/svg+xml</dc:format>
        <dc:type
           rdf:resource="http://purl.org/dc/dcmitype/StillImage" />
        <dc:title></dc:title>
      </cc:Work>
    </rdf:RDF>
  </metadata>
  <defs
     id="defs37" />
  <sodipodi:namedview
     inkscape:document-rotation="0"
     pagecolor="#ffffff"
     bordercolor="#666666"
     borderopacity="1"
     objecttolerance="10"
     gridtolerance="10"
     guidetolerance="10"
     inkscape:pageopacity="0"
     inkscape:pageshadow="2"
     inkscape:window-width="1366"
     inkscape:window-height="705"
     id="namedview35"
     showgrid="false"
     inkscape:zoom="1.0507812"
     inkscape:cx="182.21743"
     inkscape:cy="49.614876"
     inkscape:window-x="-8"
     inkscape:window-y="-8"
     inkscape:window-maximized="1"
     inkscape:current-layer="svg33" />
  <g
     transform="rotate(-18.823306,-7.2967082,9.2770584)"
     fill-rule="nonzero"
     fill="#000000"
     id="034---Pet-Advice">
    <path
       sodipodi:nodetypes="cccc"
       style="fill:#272a31;fill-opacity:1"
       d="M 0,3 C 0,1 0,2 0,3 Z M 18,34 C 6,11.333333 12,22.666667 18,34 Z"
       id="Shape" />
    <path
       style="fill:#272a31;fill-opacity:1;fill-rule:evenodd"
       d="m 21.872625,31.496625 c 0.726027,-1.908317 0.363388,-4.060055 -0.948,-5.625 -0.46885,-0.613688 -0.881515,-1.268329 -1.233,-1.956 -1.093,-1.959 -2.452,-4.4 -5.426,-4.4 -2.974,0 -4.333,2.441 -5.426,4.4 -0.351642,0.686635 -0.764303,1.340266 -1.233,1.953 -1.311388,1.564945 -1.674027,3.716682 -0.948,5.625 0.610122,1.307225 1.957025,2.108944 3.397,2.022 0.854387,-0.02089 1.695668,-0.214796 2.473,-0.57 0.54421,-0.258634 1.134982,-0.404881 1.737,-0.43 0.602018,0.02512 1.19279,0.171366 1.737,0.43 0.777331,0.355204 1.618613,0.54911 2.473,0.57 1.439266,0.08746 2.785967,-0.712947 3.397,-2.019 z"
       id="path3"
       sodipodi:nodetypes="cccsccccccccc" />
    <path
       sodipodi:nodetypes="ccccccccc"
       style="fill:#ec5242;fill-opacity:1"
       d="m 9.565625,19.464625 c 0.184675,1.63e-4 0.369021,-0.01556 0.551,-0.047 1.145137,-0.230373 2.113374,-0.989752 2.61,-2.047 0.537613,-1.105224 0.705211,-2.354141 0.478,-3.562 -0.191956,-1.213341 -0.769032,-2.332784 -1.646,-3.193 -0.822897,-0.8290275 -1.990041,-1.2189412 -3.146,-1.051 -1.14596,0.2312217 -2.11436,0.992213 -2.61,2.051 -0.537751,1.105183 -0.705355,2.354144 -0.478,3.562 0.43,2.482 2.268,4.287 4.241,4.287 z"
       id="path5" />
    <path
       sodipodi:nodetypes="cccccccc"
       style="fill:#ec5242;fill-opacity:1"
       d="m 2.211625,25.865625 c 0.550662,0.367015 1.196267,0.56577 1.858,0.572 0.315724,-4.7e-5 0.629618,-0.04792 0.931,-0.142 0.941992,-0.301692 1.697244,-1.012841 2.055,-1.935 0.373077,-0.933228 0.408447,-1.967464 0.1,-2.924 -0.492727,-2.011306 -2.512367,-3.251452 -4.529,-2.781 -0.9415372,0.302077 -1.6963338,1.013144 -2.054,1.935 -0.7486236,1.925469 -0.068988,4.112827 1.639,5.275 z"
       id="path7" />
    <path
       sodipodi:nodetypes="cccccsc"
       style="fill:#ec5242;fill-opacity:1"
       d="m 18.447625,19.415625 c 0.181643,0.03144 0.365657,0.04716 0.55,0.047 1.976,0 3.813,-1.806 4.244,-4.292 0.225429,-1.205416 0.0586,-2.451349 -0.476,-3.555 -0.496957,-1.057394 -1.465557,-1.8167669 -2.611,-2.047 -2.168,-0.376 -4.324,1.528 -4.794,4.245 -0.47,2.717 0.913,5.227 3.087,5.602 z"
       id="path9" />
    <path
       sodipodi:nodetypes="cccccccc"
       style="fill:#ec5242;fill-opacity:1"
       d="m 21.374625,21.436625 c -0.308447,0.956536 -0.273077,1.990771 0.1,2.924 0.357756,0.922159 1.113008,1.633308 2.055,1.935 0.301382,0.09408 0.615276,0.141953 0.931,0.142 0.661733,-0.0062 1.307338,-0.204985 1.858,-0.572 1.70762,-1.162462 2.386823,-3.34976 1.638,-5.275 -0.357666,-0.921856 -1.112463,-1.632923 -2.054,-1.935 -2.016393,-0.470406 -4.035737,0.769831 -4.528,2.781 z"
       id="path11" />
  </g>
</svg>
