<?xml version="1.0" encoding="UTF-8" standalone="no"?>
<svg
   xmlns:dc="http://purl.org/dc/elements/1.1/"
   xmlns:cc="http://creativecommons.org/ns#"
   xmlns:rdf="http://www.w3.org/1999/02/22-rdf-syntax-ns#"
   xmlns:svg="http://www.w3.org/2000/svg"
   xmlns="http://www.w3.org/2000/svg"
   xmlns:sodipodi="http://sodipodi.sourceforge.net/DTD/sodipodi-0.dtd"
   xmlns:inkscape="http://www.inkscape.org/namespaces/inkscape"
   inkscape:version="1.0 (4035a4fb49, 2020-05-01)"
   sodipodi:docname="advice.svg"
   id="svg33"
   version="1.1"
   width="512"
   viewBox="0 0 60 60"
   height="512">
  <metadata
     id="metadata39">
    <rdf:RDF>
      <cc:Work
         rdf:about="">
        <dc:format>image/svg+xml</dc:format>
        <dc:type
           rdf:resource="http://purl.org/dc/dcmitype/StillImage" />
      </cc:Work>
    </rdf:RDF>
  </metadata>
  <defs
     id="defs37" />
  <sodipodi:namedview
     inkscape:current-layer="svg33"
     inkscape:window-maximized="1"
     inkscape:window-y="-8"
     inkscape:window-x="-8"
     inkscape:cy="273.15092"
     inkscape:cx="72.802974"
     inkscape:zoom="1.0507812"
     showgrid="false"
     id="namedview35"
     inkscape:window-height="705"
     inkscape:window-width="1366"
     inkscape:pageshadow="2"
     inkscape:pageopacity="0"
     guidetolerance="10"
     gridtolerance="10"
     objecttolerance="10"
     borderopacity="1"
     bordercolor="#666666"
     pagecolor="#ffffff" />
  <g
     fill-rule="evenodd"
     fill="none"
     id="Page-1">
    <g
       fill-rule="nonzero"
       fill="rgb(0,0,0)"
       id="034---Pet-Advice">
      <path
         style="fill:#272a31;fill-opacity:1"
         d="m41 0h-38c-1.65685425 0-3 1.34314575-3 3v30c0 1.6568542 1.34314575 3 3 3h3v5c-.00006534.3529999.18598565.6798833.4895284.8600797.30354274.1801965.679603.1870073.9894716.0179203l10.776-5.878h3.745v16c0 1.6568542 1.3431458 3 3 3h20.741l8.773 4.874c.309731.1722384.6874894.1676752.9929694-.0119948.3054801-.1796699.4930452-.5076052.4930306-.8620052v-4h1c1.6568542 0 3-1.3431458 3-3v-24c0-1.6568542-1.3431458-3-3-3h-13v-22c0-1.65685425-1.3431458-3-3-3zm-23 34c-.16736-.0000568-.3320579.0418913-.479.122l-9.521 5.193v-3.315c0-1.1045695-.8954305-2-2-2h-3c-.55228475 0-1-.4477153-1-1v-30c0-.55228475.44771525-1 1-1h38c.5522847 0 1 .44771525 1 1v30c0 .5522847-.4477153 1-1 1zm39-7c.5522847 0 1 .4477153 1 1v24c0 .5522847-.4477153 1-1 1h-1c-1.1045695 0-2 .8954305-2 2v2.3l-7.514-4.174c-.1486491-.0826458-.315921-.1260126-.486-.126h-21c-.5522847 0-1-.4477153-1-1v-16h17c1.6568542 0 3-1.3431458 3-3v-6z"
         id="Shape" />
      <path
         style="fill:#272a31;fill-opacity:1"
         d="m29.607 27.981c.7260274-1.9083175.3633879-4.0600549-.948-5.625-.46885-.6136881-.8815147-1.2683289-1.233-1.956-1.093-1.959-2.452-4.4-5.426-4.4s-4.333 2.441-5.426 4.4c-.3516417.6866353-.7643027 1.3402662-1.233 1.953-1.3113879 1.5649451-1.6740274 3.7166825-.948 5.625.6101225 1.3072255 1.9570247 2.1089436 3.397 2.022.8543873-.02089 1.6956685-.2147963 2.473-.57.5442102-.2586337 1.1349824-.4048813 1.737-.43.6020176.0251187 1.1927898.1713663 1.737.43.7773315.3552037 1.6186127.54911 2.473.57 1.439266.087462 2.7859669-.7129469 3.397-2.019zm-1.814-.844c-.2909512.5945553-.925632.9405627-1.583.863-.6020176-.0251187-1.1927898-.1713663-1.737-.43-.7773315-.3552037-1.6186127-.54911-2.473-.57-.8543873.02089-1.6956685.2147963-2.473.57-.5442102.2586337-1.1349824.4048813-1.737.43-.657368.0775627-1.2920488-.2684447-1.583-.863-.4026742-1.200476-.1510773-2.5240118.664-3.493.5526855-.7093522 1.0381145-1.4686301 1.45-2.268 1.17-2.1 2-3.376 3.679-3.376s2.509 1.275 3.679 3.376c.4118855.7993699.8973145 1.5586478 1.45 2.268.8150773.9689882 1.0666742 2.292524.664 3.493z"
         id="path3" />
      <path
         style="fill:#ec5242;fill-opacity:1"
         d="m17.3 15.949c.1846746.0001629.3690209-.0155617.551-.047 1.1451375-.2303728 2.1133736-.9897518 2.61-2.047.5376135-1.1052243.7052109-2.3541406.478-3.562-.1919557-1.2133413-.7690317-2.33278451-1.646-3.193-.8228968-.82902751-1.9900409-1.21894119-3.146-1.051-1.1459601.2312217-2.1143601.99221339-2.61 2.051-.5377512 1.10518275-.7053547 2.3541444-.478 3.562.43 2.482 2.268 4.287 4.241 4.287zm-1.982-6.949c.2177639-.49118538.6497763-.85457755 1.171-.985.0724308-.01130632.145704-.01632503.219-.015.4591671.02852597.8915652.22584768 1.214.554.5599195.56561046.9270251 1.2935223 1.049 2.08.1495053.7815438.0483619 1.5903409-.289 2.311-.2171877.4914268-.6488771.8552265-1.17.986-1.063.184-2.2-1.012-2.483-2.615-.1503119-.7831597-.0491577-1.59379353.289-2.316z"
         id="path5" />
      <path
         style="fill:#ec5242;fill-opacity:1"
         d="m9.946 22.35c.5506625.3670151 1.1962671.5657696 1.858.572.3157236-.0000466.6296183-.0479231.931-.142.9419919-.3016918 1.6972436-1.0128412 2.055-1.935.3730767-.9332285.4084473-1.9674636.1-2.924-.4927266-2.0113064-2.5123673-3.2514523-4.529-2.781-.94153718.3020774-1.6963338 1.0131443-2.054 1.935-.74862364 1.9254692-.06898782 4.1128267 1.639 5.275zm.208-4.508c.1347179-.3704102.4282546-.6610115.8-.792.1064965-.0332547.2174323-.0501142.329-.05.8273696.0998329 1.5053905.7036703 1.7 1.514.1666634.5099836.1532495 1.0617181-.038 1.563-.1220371.3785817-.4206975.6740775-.8005577.7920749-.3798601.1179974-.7933817.0437294-1.1084423-.1990749-.897202-.6370383-1.25753782-1.7954361-.88-2.829z"
         id="path7" />
      <path
         style="fill-opacity:1;fill:#ec5242"
         d="m26.182 15.9c.181643.0314351.365657.04716.55.047 1.976 0 3.813-1.806 4.244-4.292.2254289-1.2054159.0586035-2.45134935-.476-3.555-.496957-1.0573938-1.4655566-1.81676694-2.611-2.047-2.168-.376-4.324 1.528-4.794 4.245s.913 5.227 3.087 5.602zm-1.119-5.268c.259-1.49 1.263-2.632 2.263-2.632.0737487-.00013269.147366.00622517.22.019.5201658.1295623.9517134.49139832 1.17.981.3373086.72102986.4384456 1.5301259.289 2.312-.277 1.6-1.419 2.8-2.482 2.615s-1.737-1.691-1.46-3.293z"
         id="path9" />
      <path
         style="fill:#ec5242;fill-opacity:1"
         d="m29.109 17.921c-.3084473.9565364-.2730767 1.9907715.1 2.924.3577564.9221588 1.1130081 1.6333082 2.055 1.935.3013817.0940769.6152764.1419534.931.142.6617329-.0062304 1.3073375-.2049849 1.858-.572 1.70762-1.1624617 2.3868229-3.3497604 1.638-5.275-.3576662-.9218557-1.1124628-1.6329226-2.054-1.935-2.0163927-.4704063-4.035737.7698315-4.528 2.781zm1.91.594c.321-1.035 1.251-1.707 2.025-1.465.3717454.1309885.6652821.4215898.8.792.3775378 1.0335639.017202 2.1919617-.88 2.829-.3150606.2428043-.7285822.3170723-1.1084423.1990749-.3798602-.1179974-.6785206-.4134932-.8005577-.7920749-.1905967-.501512-.2033046-1.0532446-.036-1.563z"
         id="path11" />
      <path
         style="fill:#272a31;fill-opacity:1"
         d="m5 8c.55228475 0 1-.44771525 1-1v-2c0-.55228475-.44771525-1-1-1s-1 .44771525-1 1v2c0 .55228475.44771525 1 1 1z"
         id="path13" />
      <path
         style="fill:#272a31;fill-opacity:1"
         d="m5 27c.55228475 0 1-.4477153 1-1v-15c0-.5522847-.44771525-1-1-1s-1 .4477153-1 1v15c0 .5522847.44771525 1 1 1z"
         id="path15" />
      <path
         style="fill:#272a31;fill-opacity:1"
         d="m37 47h-9c-.5522847 0-1 .4477153-1 1s.4477153 1 1 1h9c.5522847 0 1-.4477153 1-1s-.4477153-1-1-1z"
         id="path17" />
      <path
         style="fill:#272a31;fill-opacity:1"
         d="m54 47h-13c-.5522847 0-1 .4477153-1 1s.4477153 1 1 1h13c.5522847 0 1-.4477153 1-1s-.4477153-1-1-1z"
         id="path19" />
      <path
         style="fill:#272a31;fill-opacity:1"
         d="m54 43h-26c-.5522847 0-1 .4477153-1 1s.4477153 1 1 1h26c.5522847 0 1-.4477153 1-1s-.4477153-1-1-1z"
         id="path21" />
      <path
         style="fill:#272a31;fill-opacity:1"
         d="m28 41h15c.5522847 0 1-.4477153 1-1s-.4477153-1-1-1h-15c-.5522847 0-1 .4477153-1 1s.4477153 1 1 1z"
         id="path23" />
      <path
         style="fill:#272a31;fill-opacity:1"
         d="m54 39h-7c-.5522847 0-1 .4477153-1 1s.4477153 1 1 1h7c.5522847 0 1-.4477153 1-1s-.4477153-1-1-1z"
         id="path25" />
      <path
         style="fill:#272a31;fill-opacity:1"
         d="m54 35h-7c-.5522847 0-1 .4477153-1 1s.4477153 1 1 1h7c.5522847 0 1-.4477153 1-1s-.4477153-1-1-1z"
         id="path27" />
      <path
         style="fill:#272a31;fill-opacity:1"
         d="m54 31h-7c-.5522847 0-1 .4477153-1 1s.4477153 1 1 1h7c.5522847 0 1-.4477153 1-1s-.4477153-1-1-1z"
         id="path29" />
    </g>
  </g>
</svg>
