<?xml version="1.0" encoding="UTF-8" standalone="no"?>
<svg
   xmlns:dc="http://purl.org/dc/elements/1.1/"
   xmlns:cc="http://creativecommons.org/ns#"
   xmlns:rdf="http://www.w3.org/1999/02/22-rdf-syntax-ns#"
   xmlns:svg="http://www.w3.org/2000/svg"
   xmlns="http://www.w3.org/2000/svg"
   xmlns:sodipodi="http://sodipodi.sourceforge.net/DTD/sodipodi-0.dtd"
   xmlns:inkscape="http://www.inkscape.org/namespaces/inkscape"
   inkscape:version="1.0 (4035a4fb49, 2020-05-01)"
   sodipodi:docname="backpack.svg"
   version="1.1"
   width="512"
   viewBox="0 0 512 512"
   height="512"
   enable-background="new 0 0 512 512"
   id="Capa_1">
  <metadata
     id="metadata21">
    <rdf:RDF>
      <cc:Work
         rdf:about="">
        <dc:format>image/svg+xml</dc:format>
        <dc:type
           rdf:resource="http://purl.org/dc/dcmitype/StillImage" />
        <dc:title></dc:title>
      </cc:Work>
    </rdf:RDF>
  </metadata>
  <defs
     id="defs19" />
  <sodipodi:namedview
     inkscape:current-layer="Capa_1"
     inkscape:window-maximized="1"
     inkscape:window-y="-8"
     inkscape:window-x="-8"
     inkscape:cy="256"
     inkscape:cx="256"
     inkscape:zoom="1.0507812"
     showgrid="false"
     id="namedview17"
     inkscape:window-height="705"
     inkscape:window-width="1366"
     inkscape:pageshadow="2"
     inkscape:pageopacity="0"
     guidetolerance="10"
     gridtolerance="10"
     objecttolerance="10"
     borderopacity="1"
     bordercolor="#666666"
     pagecolor="#ffffff" />
  <g
     id="g14">
    <path
       style="fill:#ffffff"
       id="path2"
       d="m120.82 84.59-9.87-17.09c-4.14-7.17-13.32-9.63-20.49-5.49l-51.96 30c-7.17 4.14-9.63 13.32-5.49 20.49l35 60.63c9.44-34.18 27.97-64.61 52.81-88.54z" />
    <path
       style="fill:#ffffff"
       id="path4"
       d="m473.5 92.01-51.96-30c-7.17-4.14-16.35-1.69-20.49 5.49l-9.87 17.09c24.84 23.93 43.37 54.36 52.81 88.54l35-60.63c4.14-7.17 1.68-16.35-5.49-20.49z" />
    <path
       style="fill:#ffffff"
       id="path6"
       d="m102.18 165.28c35.71-45.79 91.39-75.28 153.82-75.28s118.11 29.49 153.82 75.28c-18.632-47.824-58.958-84.884-108.82-99.037v-21.243c0-24.81-20.19-45-45-45s-45 20.19-45 45v21.243c-49.862 14.153-90.188 51.213-108.82 99.037zm138.82-120.28c0-8.27 6.73-15 15-15s15 6.73 15 15v15.683c-4.942-.447-9.944-.683-15-.683s-10.058.236-15 .683z" />
    <path
       style="fill:#ffffff"
       id="path8"
       d="m316 422c8.27 0 15-6.73 15-15v-75h-150v75c0 8.27 6.73 15 15 15z" />
    <path
       style="fill:#ec5242;fill-opacity:1"
       id="path10"
       d="m361 407c0 24.81-20.19 45-45 45h-120c-24.81 0-45-20.19-45-45v-15h-60v105c0 8.28 6.72 15 15 15h300c8.28 0 15-6.72 15-15v-105h-60z" />
    <path
       style="fill:#ffffff"
       id="path12"
       d="m256 120c-91.13 0-165 74.14-165 165v77h60v-45c0-8.28 6.72-15 15-15h180c8.28 0 15 6.72 15 15v45h60v-77c0-90.77-73.78-165-165-165z" />
  </g>
</svg>
