<?xml version="1.0" encoding="UTF-8" standalone="no"?>
<svg
   xmlns:dc="http://purl.org/dc/elements/1.1/"
   xmlns:cc="http://creativecommons.org/ns#"
   xmlns:rdf="http://www.w3.org/1999/02/22-rdf-syntax-ns#"
   xmlns:svg="http://www.w3.org/2000/svg"
   xmlns="http://www.w3.org/2000/svg"
   xmlns:sodipodi="http://sodipodi.sourceforge.net/DTD/sodipodi-0.dtd"
   xmlns:inkscape="http://www.inkscape.org/namespaces/inkscape"
   inkscape:version="1.0 (4035a4fb49, 2020-05-01)"
   sodipodi:docname="cat-footprints.svg"
   id="svg40"
   xml:space="preserve"
   enable-background="new 0 0 1000 1000"
   viewBox="0 0 1000 1000"
   y="0px"
   x="0px"
   version="1.1"><defs
   id="defs44" /><sodipodi:namedview
   inkscape:current-layer="svg40"
   inkscape:window-maximized="1"
   inkscape:window-y="-8"
   inkscape:window-x="-8"
   inkscape:cy="500"
   inkscape:cx="500"
   inkscape:zoom="0.538"
   showgrid="false"
   id="namedview42"
   inkscape:window-height="705"
   inkscape:window-width="1366"
   inkscape:pageshadow="2"
   inkscape:pageopacity="0"
   guidetolerance="10"
   gridtolerance="10"
   objecttolerance="10"
   borderopacity="1"
   bordercolor="#666666"
   pagecolor="#ffffff" />
<metadata
   id="metadata2"> Svg Vector Icons : http://www.onlinewebfonts.com/icon <rdf:RDF><cc:Work
     rdf:about=""><dc:format>image/svg+xml</dc:format><dc:type
       rdf:resource="http://purl.org/dc/dcmitype/StillImage" /><dc:title></dc:title></cc:Work></rdf:RDF></metadata>
<g
   id="g38"><g
     id="g6"><path
       id="path4"
       d="M469.6,629.5c15.3-47.9,56.2-77.6,91.4-66.4c35.2,11.2,51.3,59.2,36,107.1c-15.3,47.9-56.2,77.6-91.4,66.4C470.4,725.3,454.3,677.4,469.6,629.5z M675.8,687.2c-31.8-10.2-69.5,18.7-84.1,64.6c-14.6,45.8-0.7,91.2,31.1,101.4c31.8,10.2,69.5-18.7,84.1-64.6C721.6,742.7,707.6,697.4,675.8,687.2z M404.5,739.7c33.4-10.1,47-58.2,30.5-107.5c-16.5-49.2-57-81-90.4-70.8c-33.4,10.1-47,58.2-30.5,107.5C330.7,718.1,371.1,749.8,404.5,739.7z M318.9,751.3c-15.8-46.8-54.4-77-86.1-67.4C201,693.5,188,739.2,203.8,786c15.8,46.8,54.4,77,86.2,67.4C321.7,843.8,334.7,798.1,318.9,751.3z M457.2,750h-6.9c0,0-136.1,22.4-135.4,179.1c-0.4,92,76.1,52.4,76.1,52.4s32.3-32.8,59.3-32.8l6.9-0.7c26.9,0,59.3,32.5,59.3,32.5s76.5,40.5,76.1-51.5C593.3,772.3,457.2,750,457.2,750z M714.4,351.1c17.2,19.5,52.6,16.3,79.1-7c26.5-23.4,34.1-58.1,17-77.6c-17.2-19.5-52.6-16.3-79.1,7C704.9,296.9,697.3,331.6,714.4,351.1z M834.9,382.8c-15.5-17.6-48.7-13.8-74.1,8.6c-25.4,22.4-33.4,54.8-17.9,72.4s48.7,13.8,74.1-8.6C842.5,432.8,850.5,400.4,834.9,382.8z M652.3,316.5c23.8,5.9,49.4-18.2,57.2-53.8c7.8-35.7-5.1-69.4-28.9-75.4c-23.8-5.9-49.4,18.2-57.2,53.8C615.6,276.8,628.5,310.5,652.3,316.5z M514.5,271.9c-7.4,33.9,5,66.1,27.6,71.8c22.6,5.7,47-17.2,54.3-51.1c7.4-33.9-5-66.1-27.6-71.8S521.9,238,514.5,271.9z M684.3,335.2l-4.2-2.5c0,0-92.1-32.4-148.3,62.4c-33.5,55.4,26,60.7,26,60.7s30.8-7.3,47.1,2.5l4.2,2.5C625.3,470.5,633,502,633,502s33.4,48.9,66.4-6.8C756.4,401,684.3,335.2,684.3,335.2z M285.5,318.3c17.1-4.8,25.7-27.6,19.1-50.9c-6.5-23.3-25.7-38.3-42.8-33.5c-17.1,4.8-25.7,27.6-19.2,50.9C249.2,308.1,268.4,323.1,285.5,318.3z M363.4,334.2c15.5-4.3,23-25.9,16.7-48.2c-6.3-22.3-23.9-36.8-39.3-32.5c-15.5,4.3-23,25.9-16.7,48.2C330.3,324,348,338.5,363.4,334.2z M190.6,341.8c19.7,15.4,44.3,17.4,55.1,4.5c10.7-12.9,3.5-35.9-16.2-51.3c-19.7-15.4-44.4-17.4-55.1-4.5C163.7,303.5,170.9,326.4,190.6,341.8z M229.7,422.4c10.2-12.3,3.3-34.1-15.4-48.7c-18.7-14.6-42.2-16.5-52.5-4.3c-10.2,12.3-3.3,34.1,15.4,48.7C196,432.7,219.5,434.6,229.7,422.4z M321.9,415.9c10.8-7.1,32.5-2.5,32.5-2.5s40.1-6.1,15.6-43c-41.2-63.2-103.2-38.2-103.2-38.2l-2.8,1.8c0,0-47.3,47.2-5.5,110c24.2,37.1,45.2,2,45.2,2s4.7-21.2,15.5-28.3L321.9,415.9z M485.6,84.9c7.8,8.9,23.9,7.5,35.9-3.1c12.1-10.6,15.6-26.3,7.8-35.2c-7.8-8.9-23.9-7.5-35.9,3.1C481.3,60.2,477.8,76,485.6,84.9z M506.6,103.2c-11.6,10.1-15.3,24.8-8.2,32.9c7,8,22.1,6.3,33.7-3.8c11.6-10.1,15.2-24.8,8.2-32.9C533.2,91.4,518.2,93.1,506.6,103.2z M457.4,69.1c10.8,2.7,22.5-8.2,26-24.4c3.6-16.2-2.2-31.5-13-34.3c-10.8-2.7-22.5,8.2-26.1,24.4C440.8,51,446.6,66.3,457.4,69.1z M407.4,81.3c10.3,2.6,21.4-7.7,24.7-23.2c3.4-15.4-2.2-30-12.4-32.6c-10.3-2.6-21.4,7.7-24.7,23.2C391.5,64,397.1,78.6,407.4,81.3z M478.5,150.3c26-42.7-6.6-72.7-6.6-72.7l-1.9-1.1c0,0-41.8-14.8-67.4,28.1c-15.3,25.1,11.7,27.6,11.7,27.6s14-3.2,21.4,1.2l1.9,1.1c7.4,4.5,10.8,18.8,10.8,18.8S463.5,175.6,478.5,150.3z" /></g><g
     id="g8" /><g
     id="g10" /><g
     id="g12" /><g
     id="g14" /><g
     id="g16" /><g
     id="g18" /><g
     id="g20" /><g
     id="g22" /><g
     id="g24" /><g
     id="g26" /><g
     id="g28" /><g
     id="g30" /><g
     id="g32" /><g
     id="g34" /><g
     id="g36" /></g>
</svg>
