<?xml version="1.0" encoding="UTF-8" standalone="no"?>
<svg
   xmlns:dc="http://purl.org/dc/elements/1.1/"
   xmlns:cc="http://creativecommons.org/ns#"
   xmlns:rdf="http://www.w3.org/1999/02/22-rdf-syntax-ns#"
   xmlns:svg="http://www.w3.org/2000/svg"
   xmlns="http://www.w3.org/2000/svg"
   xmlns:sodipodi="http://sodipodi.sourceforge.net/DTD/sodipodi-0.dtd"
   xmlns:inkscape="http://www.inkscape.org/namespaces/inkscape"
   height="463.034"
   width="393.78101"
   version="1.1"
   x="0px"
   y="0px"
   viewBox="0 0 393.78101 463.034"
   enable-background="new 0 0 1000 1000"
   xml:space="preserve"
   id="svg40"
   sodipodi:docname="cat-footprints-2.svg"
   inkscape:version="1.0 (4035a4fb49, 2020-05-01)"><defs
   id="defs44" /><sodipodi:namedview
   inkscape:document-rotation="0"
   pagecolor="#ffffff"
   bordercolor="#666666"
   borderopacity="1"
   objecttolerance="10"
   gridtolerance="10"
   guidetolerance="10"
   inkscape:pageopacity="0"
   inkscape:pageshadow="2"
   inkscape:window-width="1366"
   inkscape:window-height="705"
   id="namedview42"
   showgrid="false"
   inkscape:zoom="0.538"
   inkscape:cx="500"
   inkscape:cy="276.95167"
   inkscape:window-x="-8"
   inkscape:window-y="-8"
   inkscape:window-maximized="1"
   inkscape:current-layer="svg40" />
<metadata
   id="metadata2"> Svg Vector Icons : http://www.onlinewebfonts.com/icon <rdf:RDF><cc:Work
     rdf:about=""><dc:format>image/svg+xml</dc:format><dc:type
       rdf:resource="http://purl.org/dc/dcmitype/StillImage" /><dc:title></dc:title></cc:Work></rdf:RDF></metadata>
<path
   sodipodi:nodetypes="scscscscccscscscsccccccccccccscscsscscsccccccccccccccccccc"
   d="m 131.22491,316.44126 c 17.1,-4.8 25.7,-27.6 19.1,-50.9 -6.5,-23.3 -25.7,-38.3 -42.8,-33.5 -17.100003,4.8 -25.700003,27.6 -19.200003,50.9 6.6,23.3 25.800003,38.3 42.900003,33.5 z m 77.9,15.9 c 15.5,-4.3 23,-25.9 16.7,-48.2 -6.3,-22.3 -23.9,-36.8 -39.3,-32.5 -15.5,4.3 -23,25.9 -16.7,48.2 6.2,22.3 23.9,36.8 39.3,32.5 z m -172.800003,7.6 c 19.7,15.4 44.3,17.4 55.1,4.5 10.700003,-12.9 3.5,-35.9 -16.2,-51.3 -19.7,-15.4 -44.4,-17.4 -55.1,-4.5 -10.6999999,13 -3.5,35.9 16.2,51.3 z m 39.1,80.6 c 10.2,-12.3 3.3,-34.1 -15.4,-48.7 -18.7,-14.6 -42.2,-16.5 -52.4999999,-4.3 -10.2,12.3 -3.3,34.1 15.3999999,48.7 18.8,14.6 42.3,16.5 52.5,4.3 z m 92.200003,-6.5 c 10.8,-7.1 32.5,-2.5 32.5,-2.5 0,0 40.1,-6.1 15.6,-43 -41.2,-63.2 -103.2,-38.2 -103.2,-38.2 l -2.8,1.8 c 0,0 -47.300003,47.2 -5.5,110 24.2,37.1 45.2,2 45.2,2 0,0 4.7,-21.2 15.5,-28.3 z m 163.7,-330.999996 c 7.8,8.9 23.9,7.5 35.9,-3.1 12.1,-10.6 15.6,-26.3 7.8,-35.2 -7.8,-8.9 -23.9,-7.5 -35.9,3.1 -12.1,10.5 -15.6,26.3 -7.8,35.2 z m 21,18.299996 c -11.6,10.1 -15.3,24.8 -8.2,32.9 7,8 22.1,6.3 33.7,-3.8 11.6,-10.1 15.2,-24.8 8.2,-32.899996 -7.1,-8 -22.1,-6.3 -33.7,3.799996 z m -49.2,-34.099996 c 10.8,2.7 22.5,-8.2 26,-24.4 3.6,-16.2 -2.2,-31.5 -13,-34.3000001 -10.8,-2.7 -22.5,8.2000001 -26.1,24.4000001 -3.5,16.2 2.3,31.5 13.1,34.3 z m -50,12.2 c 10.3,2.6 21.4,-7.7 24.7,-23.2 3.4,-15.4 -2.2,-30 -12.4,-32.6 -10.3,-2.6 -21.4,7.7 -24.7,23.2 -3.5,15.3 2.1,29.9 12.4,32.6 z m 71.1,68.999996 c 26,-42.7 -6.6,-72.699996 -6.6,-72.699996 l -1.9,-1.1 c 0,0 -41.8,-14.8 -67.4,28.099996 -15.3,25.1 11.7,27.6 11.7,27.6 0,0 14,-3.2 21.4,1.2 l 1.9,1.1 c 7.4,4.5 10.8,18.8 10.8,18.8 0,0 15.1,22.3 30.1,-3 z"
   id="path4" /><g
   id="g8" /><g
   id="g10" /><g
   id="g12" /><g
   id="g14" /><g
   id="g16" /><g
   id="g18" /><g
   id="g20" /><g
   id="g22" /><g
   id="g24" /><g
   id="g26" /><g
   id="g28" /><g
   id="g30" /><g
   id="g32" /><g
   id="g34" /><g
   id="g36" />
</svg>
