<?xml version="1.0" encoding="UTF-8" standalone="no"?>
<svg
   xmlns:dc="http://purl.org/dc/elements/1.1/"
   xmlns:cc="http://creativecommons.org/ns#"
   xmlns:rdf="http://www.w3.org/1999/02/22-rdf-syntax-ns#"
   xmlns:svg="http://www.w3.org/2000/svg"
   xmlns="http://www.w3.org/2000/svg"
   xmlns:sodipodi="http://sodipodi.sourceforge.net/DTD/sodipodi-0.dtd"
   xmlns:inkscape="http://www.inkscape.org/namespaces/inkscape"
   sodipodi:docname="cdl-logo-white.svg"
   inkscape:version="1.0 (4035a4fb49, 2020-05-01)"
   id="svg8"
   version="1.1"
   viewBox="0 0 110.76 38.112999"
   height="38.112999mm"
   width="110.76mm">
  <defs
     id="defs2" />
  <sodipodi:namedview
     inkscape:window-maximized="0"
     inkscape:window-y="0"
     inkscape:window-x="0"
     inkscape:window-height="728"
     inkscape:window-width="1350"
     showgrid="false"
     inkscape:document-rotation="0"
     inkscape:current-layer="layer1"
     inkscape:document-units="mm"
     inkscape:cy="116.41775"
     inkscape:cx="213.82777"
     inkscape:zoom="1.4"
     inkscape:pageshadow="2"
     inkscape:pageopacity="0.0"
     borderopacity="1.0"
     bordercolor="#666666"
     pagecolor="#ffffff"
     id="base" />
  <metadata
     id="metadata5">
    <rdf:RDF>
      <cc:Work
         rdf:about="">
        <dc:format>image/svg+xml</dc:format>
        <dc:type
           rdf:resource="http://purl.org/dc/dcmitype/StillImage" />
        <dc:title></dc:title>
      </cc:Work>
    </rdf:RDF>
  </metadata>
  <g
     id="layer1"
     inkscape:groupmode="layer"
     inkscape:label="Layer 1">
    <path
       id="path847"
       d="M 16.021956,38.161132 C 11.038834,37.079872 6.1075398,33.565372 3.4899008,29.229612 0.03259681,23.503062 -0.08584319,15.815362 3.1956398,10.129762 6.3325638,4.6946219 13.302695,0.3738519 18.451167,0.6728819 l 1.863933,0.10827 1.534513,3.8294 c 0.843982,2.10617 1.534513,3.87987 1.534513,3.94154 0,0.0617 -1.150937,0.0285 -2.557639,-0.0737 -3.626207,-0.26348 -6.112337,0.6975 -8.761591,3.3866701 -2.2943602,2.32894 -3.1437872,4.37744 -3.1464022,7.58795 -0.0024,2.91922 0.913681,5.26904 2.9050662,7.45192 2.796348,3.06524 6.507855,4.1797 11.08966,3.32991 6.117809,-1.13468 11.620165,-6.08814 13.124042,-11.81482 0.619012,-2.35717 1.016695,-5.46805 0.699012,-5.46805 -0.164652,0 -0.299371,0.39521 -0.299371,0.87823 0,2.00933 -3.137164,7.94121 -4.199826,7.94121 -0.147348,0 -0.437551,-0.51593 -0.644896,-1.14652 -0.207341,-0.63059 -1.959113,-5.03591 -3.892823,-9.78959 C 23.216993,-0.1837881 23.447314,0.6047519 24.711161,0.6047519 c 0.880745,0 1.135788,0.24336 1.847484,1.76286 0.987872,2.10915 1.275663,2.11546 0.533414,0.0117 -0.293113,-0.83077 -0.532933,-1.56991 -0.532933,-1.64253 0,-0.0726 1.484608,-0.13203 3.29913,-0.13203 h 3.29913 l 1.816145,4.69399 c 0.998884,2.58169 1.81615,5.2010601 1.81615,5.8208301 0,0.67227 0.165615,1.09127 0.410545,1.03865 0.225799,-0.0485 0.705389,0.8643 1.065755,2.02847 0.360366,1.16417 0.877062,2.59292 1.148211,3.175 0.815178,1.74996 3.014708,7.72884 3.017414,8.20208 0.0049,0.85779 0.59472,0.42554 0.962737,-0.70555 0.205172,-0.63059 0.877517,-2.4959 1.494102,-4.14514 0.616582,-1.64924 1.484567,-4.03049 1.928855,-5.29167 2.03521,-5.7772501 5.160173,-9.8617901 9.375153,-12.2539901 5.902981,-3.35021 14.480131,-3.42492 20.103181,-0.17511 3.48898,2.01644 6.58854,5.6546 7.78823,9.1415701 0.76945,2.23643 0.65702,2.71239 -0.37822,1.60118 -1.91691,-2.05756 -5.9724,-3.59556 -9.49665,-3.60149 -1.26079,-0.002 -3.21933,-0.3073301 -4.40972,-0.6871801 -1.17785,-0.37585 -2.5781,-0.77575 -3.11168,-0.88867 -0.53357,-0.11292 -0.97014,-0.33439 -0.97014,-0.49217 0,-0.47489 2.4901,-1.12774 5.11528,-1.34112 2.78279,-0.22619 5.94104,0.60896 8.41894,2.22625 0.74985,0.48942 1.24683,0.70128 1.10438,0.4708 -0.48687,-0.78779 -3.44722,-2.44166 -5.73047,-3.20148 -2.89768,-0.96428 -7.36055,-0.82241 -10.31924,0.32804 -2.54061,0.98789 -5.207651,3.0348 -6.526391,5.0088701 -0.58208,0.87135 -3.35845,7.33608 -6.1697,14.36606 -4.99343,12.48684 -5.133849,12.78178 -6.085418,12.78178 -0.535725,0 -0.974044,-0.0973 -0.974044,-0.21618 0,-0.11889 0.954003,-2.76322 2.120011,-5.87628 1.166005,-3.11306 2.067373,-5.71275 2.003037,-5.77709 -0.06433,-0.0643 -1.192163,2.58 -2.506289,5.87629 l -2.389321,5.99326 h -2.435941 c -1.339769,0 -2.435941,-0.0457 -2.435941,-0.10151 0,-0.0558 -0.550767,-1.4272 -1.223927,-3.04751 -1.199201,-2.8865 -1.211287,-2.96461 -0.598286,-3.86724 1.492221,-2.19727 2.518572,-6.18384 2.525105,-9.80806 0.0041,-2.24688 -0.580937,-2.12613 -0.797098,0.16453 -0.7204,7.63407 -7.028345,14.45726 -14.908775,16.12654 -2.988961,0.63315 -4.927383,0.63059 -7.88141,-0.0104 z M 28.013302,4.9527419 c -0.415871,-0.71515 -0.516295,-0.48625 -0.175872,0.40088 0.120984,0.31528 0.294285,0.49892 0.385114,0.40809 0.09083,-0.0908 -0.0033,-0.45486 -0.209242,-0.80897 z M 50.281563,38.087392 c 0.34986,-1.28087 7.77427,-19.68212 8.07048,-20.00249 0.17889,-0.19349 0.30986,2.37873 0.30986,6.08541 v 6.42056 l 3.968751,-0.004 c 2.22945,-0.002 4.76494,-0.21618 5.78551,-0.48792 1.94152,-0.51695 4.84279,-2.30731 5.18527,-3.1998 0.29669,-0.77316 0.84907,-0.67101 1.77518,0.32828 0.96009,1.03596 4.59793,3.01085 5.54611,3.01085 0.8793,0 0.84653,0.23078 -0.23389,1.64728 -1.20483,1.57961 -4.33199,3.85519 -6.79451,4.94423 -3.41865,1.51189 -6.41773,1.87516 -15.480991,1.87516 -7.73418,0 -8.28889,-0.0421 -8.13177,-0.61737 z m 34.133111,0.32608 c 0,-0.1602 0.40467,-0.67144 0.89925,-1.13608 1.32824,-1.24782 3.23987,-4.26121 4.05849,-6.39759 0.51367,-1.34054 1.09222,-2.12831 2.02578,-2.75838 1.92003,-1.29584 1.92031,-1.29573 1.78459,0.66409 l -0.12505,1.80579 9.260406,-2.1e-4 9.26042,-2.2e-4 v 4.05694 4.05695 H 97.996624 c -7.47007,0 -13.58195,-0.13108 -13.58195,-0.29129 z m 0,-4.24123 c 0,-2.34765 0.71699,-3.46226 2.54351,-3.95409 0.77455,-0.20857 1.49367,-0.29381 1.59805,-0.18943 0.27872,0.27872 -2.03072,3.96351 -3.16558,5.05077 l -0.97598,0.93505 z m -20.58157,-7.12446 c -0.92596,-1.54513 -1.59868,-2.94668 -1.49493,-3.11456 0.10376,-0.16788 0.8458,-0.41032 1.64899,-0.53875 1.15008,-0.1839 1.55313,-0.10662 1.89708,0.36376 0.54728,0.74845 1.69868,0.38161 1.52679,-0.48644 -0.13609,-0.6872 -1.47679,-0.79105 -4.03799,-0.31278 -1.26398,0.23603 -1.56323,0.16494 -2.20486,-0.52377 -0.93344,-1.00192 -0.92807,-1.17329 0.0514,-1.63888 0.74966,-0.35636 0.73497,-0.37405 -0.26459,-0.31849 -0.78372,0.0436 -1.058331,-0.0967 -1.058331,-0.54053 0,-0.77277 6.162011,-6.32554 8.085741,-7.28629 2.23551,-1.11648 5.78212,-1.9208 7.4572,-1.69121 4.00154,0.54847 8.28703,3.41276 10.18387,6.80658 0.93743,1.67724 1.64016,5.41611 1.01798,5.41611 -0.63334,0 -1.87382,-1.62817 -1.89876,-2.49218 -0.0136,-0.47256 -0.16864,-1.1767 -0.34445,-1.56476 -0.22789,-0.50299 -0.26014,-0.32575 -0.11233,0.61736 0.11403,0.72761 0.0999,1.32292 -0.0315,1.32292 -0.73945,0 -1.65084,-0.90866 -2.60223,-2.59442 -1.71835,-3.04474 -4.9476,-5.16669 -7.86282,-5.16669 -1.23747,0 -1.60124,0.55649 -0.68448,1.04712 0.99881,0.53455 2.49039,3.22678 2.49039,4.49503 0,0.97859 -0.12866,1.09539 -1.4993,1.36102 l -1.49931,0.29056 1.32292,0.1286 c 1.56082,0.15172 1.63102,0.4974 0.42274,2.08154 -1.17492,1.54039 -2.63599,2.28825 -5.44982,2.78953 -1.98248,0.35317 -2.16166,0.44421 -1.32292,0.67218 0.53358,0.14502 0.97014,0.41656 0.97014,0.60342 0,0.62568 -0.99971,1.34802 -1.56529,1.13098 -0.38668,-0.14838 -0.49985,-0.0595 -0.36655,0.28786 0.10606,0.27638 -0.0961,0.76396 -0.44917,1.08351 -0.60882,0.55098 -0.729,0.43581 -2.32557,-2.22833 z m 2.52341,-8.69785 c 0.0658,-0.46047 0.41931,-0.82859 0.88194,-0.9185 0.54734,-0.10636 0.44673,-0.16402 -0.34561,-0.19808 -1.50708,-0.0648 -2.23372,0.25703 -2.23372,0.98924 0,1.32202 1.51035,1.43532 1.69739,0.12734 z m 14.37252,10.95065 c -1.86481,-0.57223 -4.09481,-1.96693 -5.41433,-3.38625 l -0.8097,-0.87095 0.8097,-1.26827 c 0.44533,-0.69754 0.97946,-1.27499 1.18695,-1.2832 0.2075,-0.008 1.23937,0.63007 2.29306,1.4184 2.44446,1.82886 3.80746,2.65419 4.91441,2.97577 0.63743,0.18519 0.47564,-0.0237 -0.58359,-0.75352 -0.80605,-0.55536 -2.51261,-2.14463 -3.79237,-3.53171 -1.8925,-2.05122 -2.32826,-2.74263 -2.33457,-3.70417 -0.004,-0.65021 -0.32458,-1.88052 -0.71182,-2.73404 -0.38724,-0.8535 -0.64896,-1.60695 -0.58159,-1.67432 0.0674,-0.0674 0.89645,0.42777 1.84239,1.10032 1.08134,0.7688 2.39483,2.24382 3.53774,3.9728 1.00298,1.51729 2.43334,3.17067 3.19096,3.68848 1.94827,1.33159 4.7193,2.14211 6.82478,1.99625 0.9794,-0.0678 1.78063,-0.034 1.78051,0.0752 -3.1e-4,0.2773 -1.73143,1.83816 -2.99883,2.70387 -1.34808,0.92083 -4.51908,1.8673 -6.14945,1.83548 -0.69239,-0.0135 -2.0443,-0.26558 -3.00425,-0.56016 z m 7.90696,-4.93544 c -0.45303,-0.12278 -0.51805,-0.72284 -0.39912,-3.68379 0.18435,-4.58979 -0.33782,-7.16963 -2.25739,-11.1527901 -1.45252,-3.01403 -1.56481,-3.45069 -1.56481,-6.08541 v -2.83839 h 4.40973 4.40972 V 12.175872 c 0,12.02279 -0.0471,12.41778 -1.48167,12.41778 -0.55537,0 -0.64243,-0.36495 -0.6943,-2.91042 -0.0326,-1.60073 -0.11204,-2.27542 -0.1765,-1.49931 -0.37291,4.49001 -0.46608,4.66349 -2.24566,4.18122 z m 2.00954,-7.6208 c -0.0979,-0.24253 -0.17793,-0.0441 -0.17793,0.44097 0,0.48507 0.0801,0.68351 0.17793,0.44097 0.0979,-0.24253 0.0979,-0.63941 0,-0.88194 z"
       style="fill:#000000;stroke-width:0.352778;fill-opacity:0" />
  </g>
</svg>
