<?xml version="1.0" encoding="UTF-8" standalone="no"?>
<svg
   xmlns:dc="http://purl.org/dc/elements/1.1/"
   xmlns:cc="http://creativecommons.org/ns#"
   xmlns:rdf="http://www.w3.org/1999/02/22-rdf-syntax-ns#"
   xmlns:svg="http://www.w3.org/2000/svg"
   xmlns="http://www.w3.org/2000/svg"
   xmlns:sodipodi="http://sodipodi.sourceforge.net/DTD/sodipodi-0.dtd"
   xmlns:inkscape="http://www.inkscape.org/namespaces/inkscape"
   inkscape:version="1.0 (4035a4fb49, 2020-05-01)"
   sodipodi:docname="concert.svg"
   version="1.1"
   width="512"
   viewBox="0 0 512 512"
   height="512"
   enable-background="new 0 0 512 512"
   id="Capa_1">
  <metadata
     id="metadata23">
    <rdf:RDF>
      <cc:Work
         rdf:about="">
        <dc:format>image/svg+xml</dc:format>
        <dc:type
           rdf:resource="http://purl.org/dc/dcmitype/StillImage" />
      </cc:Work>
    </rdf:RDF>
  </metadata>
  <defs
     id="defs21" />
  <sodipodi:namedview
     inkscape:current-layer="Capa_1"
     inkscape:window-maximized="1"
     inkscape:window-y="-8"
     inkscape:window-x="-8"
     inkscape:cy="256"
     inkscape:cx="256"
     inkscape:zoom="1.0507812"
     showgrid="false"
     id="namedview19"
     inkscape:window-height="705"
     inkscape:window-width="1366"
     inkscape:pageshadow="2"
     inkscape:pageopacity="0"
     guidetolerance="10"
     gridtolerance="10"
     objecttolerance="10"
     borderopacity="1"
     bordercolor="#666666"
     pagecolor="#ffffff" />
  <g
     id="g16">
    <g
       id="g4">
      <path
         style="fill:#ffffff"
         id="path2"
         d="m497 512h-482c-8.284 0-15-6.716-15-15v-30h512v30c0 8.284-6.716 15-15 15z" />
    </g>
    <g
       id="g8">
      <path
         style="fill:#ec5242;fill-opacity:1"
         id="path6"
         d="m105 257h-90c-8.28 0-15 6.72-15 15v165h120v-165c0-8.28-6.72-15-15-15zm-45 135c-8.28 0-15-6.72-15-15s6.72-15 15-15 15 6.72 15 15-6.72 15-15 15zm0-60c-8.28 0-15-6.72-15-15s6.72-15 15-15 15 6.72 15 15-6.72 15-15 15z" />
    </g>
    <g
       id="g12">
      <path
         style="fill:#ec5242;fill-opacity:1"
         id="path10"
         d="m497 257h-90c-8.28 0-15 6.72-15 15v165h120v-165c0-8.28-6.72-15-15-15zm-45 135c-8.28 0-15-6.72-15-15s6.72-15 15-15 15 6.72 15 15-6.72 15-15 15zm0-60c-8.28 0-15-6.72-15-15s6.72-15 15-15 15 6.72 15 15-6.72 15-15 15z" />
    </g>
    <path
       style="fill:#ffffff"
       id="path14"
       d="m482 57.639-41.458-27.639h41.458zm-246.817-4.545-34.641-23.094h46.188zm-163.724 6.906h-41.459v-27.639zm9.082-30h46.189l-11.547 23.094zm64.729 30 11.547-23.094 34.641 23.094zm120 0 11.547-23.094 34.641 23.094zm55.272-30h46.188l-11.547 23.094zm64.728 30 11.547-23.094 34.641 23.094zm-355.27 30h30v8.787l-30 30zm422 8.787v-8.787h30v38.787zm45-98.787h-482c-8.28 0-15 6.72-15 15v214.58c4.69-1.67 9.74-2.58 15-2.58h15v-25.79l25.79 25.79h34.21s0-120.787 0-137h36.73l25.85 51.71c3.7 7.39 12.7 10.42 20.13 6.71 7.41-3.71 10.41-12.72 6.71-20.13l-19.15-38.29h80.73v45c0 8.28 6.72 15 15 15s15-6.72 15-15v-45h80.73l-19.15 38.29c-3.7 7.41-.7 16.42 6.71 20.13 7.42 3.71 16.43.68 20.13-6.71l25.85-51.71h36.73v137h34.21l25.79-25.79v25.79h15c5.26 0 10.31.91 15 2.58 0-7.169 0-202.246 0-214.58 0-8.28-6.72-15-15-15zm-437 188.79-23.79-23.79 23.79-23.79zm392 0v-47.58l23.79 23.79z" />
  </g>
</svg>
