<?xml version="1.0" encoding="UTF-8" standalone="no"?>
<svg
   xmlns:dc="http://purl.org/dc/elements/1.1/"
   xmlns:cc="http://creativecommons.org/ns#"
   xmlns:rdf="http://www.w3.org/1999/02/22-rdf-syntax-ns#"
   xmlns:svg="http://www.w3.org/2000/svg"
   xmlns="http://www.w3.org/2000/svg"
   xmlns:sodipodi="http://sodipodi.sourceforge.net/DTD/sodipodi-0.dtd"
   xmlns:inkscape="http://www.inkscape.org/namespaces/inkscape"
   width="150mm"
   height="150mm"
   viewBox="0 0 150 150"
   version="1.1"
   id="svg8"
   sodipodi:docname="event-icon.svg"
   inkscape:version="1.0 (4035a4fb49, 2020-05-01)">
  <defs
     id="defs2" />
  <sodipodi:namedview
     id="base"
     pagecolor="#ffffff"
     bordercolor="#666666"
     borderopacity="1.0"
     inkscape:pageopacity="0.0"
     inkscape:pageshadow="2"
     inkscape:zoom="0.3217416"
     inkscape:cx="31.877198"
     inkscape:cy="560"
     inkscape:document-units="mm"
     inkscape:current-layer="layer1"
     inkscape:document-rotation="0"
     showgrid="false"
     inkscape:window-width="1366"
     inkscape:window-height="705"
     inkscape:window-x="-8"
     inkscape:window-y="-8"
     inkscape:window-maximized="1" />
  <metadata
     id="metadata5">
    <rdf:RDF>
      <cc:Work
         rdf:about="">
        <dc:format>image/svg+xml</dc:format>
        <dc:type
           rdf:resource="http://purl.org/dc/dcmitype/StillImage" />
        <dc:title />
      </cc:Work>
    </rdf:RDF>
  </metadata>
  <g
     inkscape:label="Layer 1"
     inkscape:groupmode="layer"
     id="layer1">
    <circle
       style="opacity:0.98366;fill:#afe9c6;stroke:#000000;stroke-width:0.291999"
       id="path31"
       cy="76.085548"
       cx="73.7202"
       r="72.143288" />
    <g
       id="g260"
       fill-rule="evenodd"
       clip-rule="evenodd"
       transform="matrix(0.17079096,0,0,0.17372597,28.81486,31.611527)"
       style="fill:#ffffff">
      <path
         id="path256"
         d="m 436.162,40 h -30 V 30 c 0,-16.542 -13.458,-30 -30,-30 h -10e-4 c -16.542,0 -30,13.458 -30,30 V 40 H 286.162 V 30 c 0,-16.542 -13.458,-30 -30,-30 h -10e-4 c -16.542,0 -30,13.458 -30,30 V 40 H 166.162 V 30 c 0,-16.542 -13.458,-30 -30,-30 h -0.001 c -16.542,0 -30,13.458 -30,30 v 10 h -30 C 59.443,40 45.84,53.458 45.84,70 v 412.002 c 0,16.542 13.603,30 30.322,30 h 360 c 16.542,0 30,-13.458 30,-30 V 70 c 0,-16.542 -13.458,-30 -30,-30 z m -70,-10 c 0,-5.514 4.486,-10 10,-10 5.514,0 10,4.486 10,10 v 40 c 0,5.514 -4.486,10 -10,10 -5.514,0 -10,-4.486 -10,-10 z m -120,0 c 0,-5.514 4.486,-10 10,-10 5.514,0 10,4.486 10,10 v 40 c 0,5.514 -4.486,10 -10,10 -5.514,0 -10,-4.486 -10,-10 z m -120,0 c 0,-5.514 4.486,-10 10,-10 5.514,0 10,4.486 10,10 v 40 c 0,5.514 -4.486,10 -10,10 -5.514,0 -10,-4.486 -10,-10 z m -50,30 h 30 v 10 c 0,16.542 13.458,30 30,30 16.542,0 30,-13.458 30,-30 V 60 h 59.999 v 10 c 0,16.542 13.458,30 30,30 16.542,0 30,-13.458 30,-30 V 60 h 59.999 v 10 c 0,16.542 13.458,30 30,30 16.542,0 30,-13.458 30,-30 V 60 h 30 c 5.514,0 10,4.486 10,10 v 60.002 H 65.84 V 70 c 0,-5.421 4.727,-10 10.322,-10 z m 360,432.002 h -360 c -5.595,0 -10.322,-4.58 -10.322,-10 v -332 h 380.322 v 332 c 0,5.514 -4.486,10 -10,10 z"
         style="fill:#ffffff" />
      <path
         id="path258"
         d="m 289.496,273.004 -21.253,-43.402 c -1.26,-2.623 -3.378,-4.856 -6.195,-6.234 -6.656,-3.255 -14.692,-0.499 -17.947,6.158 l -21.29,43.477 -47.999,6.823 0.002,0.014 c -2.844,0.403 -5.581,1.715 -7.739,3.933 -5.173,5.319 -5.056,13.826 0.263,18.999 l 34.791,33.704 -8.341,47.744 0.021,0.004 c -0.496,2.829 -0.094,5.837 1.347,8.575 3.459,6.569 11.589,9.09 18.158,5.631 l 42.837,-22.691 42.149,22.326 c 2.683,1.619 5.939,2.314 9.267,1.733 7.325,-1.279 12.226,-8.254 10.947,-15.578 l -8.341,-47.743 34.345,-33.271 c 2.306,-2.042 3.926,-4.881 4.394,-8.17 1.046,-7.354 -4.067,-14.164 -11.421,-15.211 z"
         style="fill:#ffffff" />
    </g>
  </g>
</svg>
