<?xml version="1.0" encoding="UTF-8" standalone="no"?>
<svg
   xmlns:dc="http://purl.org/dc/elements/1.1/"
   xmlns:cc="http://creativecommons.org/ns#"
   xmlns:rdf="http://www.w3.org/1999/02/22-rdf-syntax-ns#"
   xmlns:svg="http://www.w3.org/2000/svg"
   xmlns="http://www.w3.org/2000/svg"
   xmlns:sodipodi="http://sodipodi.sourceforge.net/DTD/sodipodi-0.dtd"
   xmlns:inkscape="http://www.inkscape.org/namespaces/inkscape"
   width="150mm"
   height="150mm"
   viewBox="0 0 150 150"
   version="1.1"
   id="svg8"
   sodipodi:docname="forum-icon.svg"
   inkscape:version="1.0 (4035a4fb49, 2020-05-01)">
  <defs
     id="defs2" />
  <sodipodi:namedview
     id="base"
     pagecolor="#ffffff"
     bordercolor="#666666"
     borderopacity="1.0"
     inkscape:pageopacity="0.0"
     inkscape:pageshadow="2"
     inkscape:zoom="0.3217416"
     inkscape:cx="-36.500656"
     inkscape:cy="560"
     inkscape:document-units="mm"
     inkscape:current-layer="layer1"
     inkscape:document-rotation="0"
     showgrid="false"
     inkscape:window-width="1366"
     inkscape:window-height="705"
     inkscape:window-x="-8"
     inkscape:window-y="-8"
     inkscape:window-maximized="1" />
  <metadata
     id="metadata5">
    <rdf:RDF>
      <cc:Work
         rdf:about="">
        <dc:format>image/svg+xml</dc:format>
        <dc:type
           rdf:resource="http://purl.org/dc/dcmitype/StillImage" />
        <dc:title />
      </cc:Work>
    </rdf:RDF>
  </metadata>
  <g
     inkscape:label="Layer 1"
     inkscape:groupmode="layer"
     id="layer1">
    <circle
       style="opacity:0.98366;fill:#ec5242;stroke:#000000;stroke-width:0.291999;fill-opacity:1"
       id="path31"
       cy="76.085548"
       cx="73.7202"
       r="72.143288" />
    <g
       id="g306"
       transform="matrix(0.1752666,0,0,0.18679891,28.955093,24.912692)"
       style="fill:#ffffff">
      <path
         id="path300"
         d="M 471,262.813 C 493.945,260.781 512,241.465 512,218 V 78 C 512,53.187 491.813,33 467,33 H 318 c -24.813,0 -45,20.187 -45,45 v 59 H 86 c -24.813,0 -45,20.187 -45,45 v 180 c 0,5.258 0.915,10.305 2.58,15 H 27 c -14.888,0 -27,12.112 -27,27 0,41.355 33.645,75 75,75 h 362 c 41.355,0 75,-33.645 75,-75 0,-14.888 -12.112,-27 -27,-27 h -16.58 c 1.665,-4.695 2.58,-9.742 2.58,-15 z M 303,78 c 0,-8.271 6.729,-15 15,-15 h 149 c 8.271,0 15,6.729 15,15 v 140 c 0,8.271 -6.729,15 -15,15 H 328 c -2.812,0 -5.566,0.79 -7.95,2.28 l -30.244,18.903 12.562,-41.873 C 302.787,210.912 303,209.46 303,208 Z M 437,449 H 75 C 51.195,449 31.649,430.419 30.099,407 h 451.802 c -1.55,23.419 -21.096,42 -44.901,42 z M 143,264 c 0,-9.374 7.626,-17 17,-17 9.374,0 17,7.626 17,17 0,9.374 -7.626,17 -17,17 -9.374,0 -17,-7.626 -17,-17 z m -8,64 c 0,-9.056 11.682,-17 25,-17 7.142,0 14.023,2.228 18.879,6.113 2.287,1.829 6.121,5.675 6.121,10.887 v 49 h -50 z m 80,49 v -49 c 0,-12.97 -6.334,-25.477 -17.38,-34.313 -0.248,-0.199 -0.507,-0.385 -0.759,-0.579 C 203.201,285.096 207,274.986 207,264 c 0,-25.916 -21.084,-47 -47,-47 -25.916,0 -47,21.084 -47,47 0,10.999 3.808,21.118 10.16,29.134 C 112.016,301.741 105,314.183 105,328 v 49 H 86 c -8.271,0 -15,-6.729 -15,-15 V 182 c 0,-8.271 6.729,-15 15,-15 h 187 v 38.799 l -11.929,39.763 c -3.623,12.076 0.512,24.822 10.535,32.47 5.399,4.12 11.772,6.202 18.175,6.202 5.484,0 10.991,-1.528 15.923,-4.611 L 332.302,263 H 441 v 99 c 0,8.271 -6.729,15 -15,15 z"
         style="fill:#ffffff" />
      <path
         id="path302"
         d="m 408,169 h -32 c -8.284,0 -15,6.716 -15,15 0,8.284 6.716,15 15,15 h 32 c 8.284,0 15,-6.716 15,-15 0,-8.284 -6.716,-15 -15,-15 z"
         style="fill:#ffffff" />
      <path
         id="path304"
         d="m 352,127 h 80 c 8.284,0 15,-6.716 15,-15 0,-8.284 -6.716,-15 -15,-15 h -80 c -8.284,0 -15,6.716 -15,15 0,8.284 6.716,15 15,15 z"
         style="fill:#ffffff" />
    </g>
  </g>
</svg>
