<?xml version="1.0" encoding="UTF-8" standalone="no"?>
<svg
   xmlns:dc="http://purl.org/dc/elements/1.1/"
   xmlns:cc="http://creativecommons.org/ns#"
   xmlns:rdf="http://www.w3.org/1999/02/22-rdf-syntax-ns#"
   xmlns:svg="http://www.w3.org/2000/svg"
   xmlns="http://www.w3.org/2000/svg"
   xmlns:sodipodi="http://sodipodi.sourceforge.net/DTD/sodipodi-0.dtd"
   xmlns:inkscape="http://www.inkscape.org/namespaces/inkscape"
   width="16"
   height="16"
   viewBox="0 0 16 16"
   version="1.1"
   id="svg5"
   sodipodi:docname="instagram.svg"
   inkscape:version="1.0 (4035a4fb49, 2020-05-01)">
  <metadata
     id="metadata11">
    <rdf:RDF>
      <cc:Work
         rdf:about="">
        <dc:format>image/svg+xml</dc:format>
        <dc:type
           rdf:resource="http://purl.org/dc/dcmitype/StillImage" />
      </cc:Work>
    </rdf:RDF>
  </metadata>
  <defs
     id="defs9" />
  <sodipodi:namedview
     inkscape:document-rotation="0"
     pagecolor="#ffffff"
     bordercolor="#666666"
     borderopacity="1"
     objecttolerance="10"
     gridtolerance="10"
     guidetolerance="10"
     inkscape:pageopacity="0"
     inkscape:pageshadow="2"
     inkscape:window-width="1366"
     inkscape:window-height="705"
     id="namedview7"
     showgrid="false"
     inkscape:zoom="33.625"
     inkscape:cx="8"
     inkscape:cy="4.1336483"
     inkscape:window-x="-8"
     inkscape:window-y="-8"
     inkscape:window-maximized="1"
     inkscape:current-layer="svg5" />
  <svg
     width="16"
     height="16"
     viewBox="-7.5 992.5 16 16"
     id="instagram"
     x="0"
     y="0"
     version="1.1">
    <path
       sodipodi:nodetypes="cccccccccccsssccsscccccccccccssccc"
       fill="#8a8a8c"
       d="M 8.5594796,994.33042 8.5,1006.164 c 0.088667,3.0743 0.619336,2.3949 -2.336,2.336 H -5.164 c -2.9850758,0.089 -2.3651879,0.6491 -2.336,-2.336 v -12.69603 c -0.1481471,-1.49809 -0.4706372,-0.90794 2.336,-0.96797 l 11.7146171,-0.0297 c 2.4497598,0.0303 1.9785708,-0.50038 2.0088625,1.86016 z M 6.836,999.5 H 5.062 c 0.07,0.32 0.102,0.656 0.102,1 0,2.578 -2.086,4.664 -4.664,4.664 -2.578,0 -4.664,-2.086 -4.664,-4.664 0,-0.344 0.031,-0.68 0.102,-1 h -1.773 v 7 c 0,0.188 0.148,0.336 0.336,0.336 h 12 c 0.1862615,0 0.3376857,-0.1497 0.336,-0.336 v -7 z m -9.336,1 c 0.1006554,3.898 5.8993446,3.898 6,0 -0.1006554,-3.89804 -5.8993446,-3.89804 -6,0 z m 9.336,-6 c 0.00169,-0.18626 -0.1497385,-0.33769 -0.336,-0.336 h -2 c -0.1862615,-0.002 -0.3376857,0.14974 -0.336,0.336 v 2 c 0,0.188 0.148,0.336 0.336,0.336 h 2 c 0.1862615,0.002 0.3376857,-0.14974 0.336,-0.336 z"
       id="path2"
       style="fill:#3e3e3e;fill-opacity:1" />
  </svg>
</svg>
