<?xml version="1.0" encoding="UTF-8" standalone="no"?>
<svg
   xmlns:dc="http://purl.org/dc/elements/1.1/"
   xmlns:cc="http://creativecommons.org/ns#"
   xmlns:rdf="http://www.w3.org/1999/02/22-rdf-syntax-ns#"
   xmlns:svg="http://www.w3.org/2000/svg"
   xmlns="http://www.w3.org/2000/svg"
   xmlns:sodipodi="http://sodipodi.sourceforge.net/DTD/sodipodi-0.dtd"
   xmlns:inkscape="http://www.inkscape.org/namespaces/inkscape"
   width="150mm"
   height="150mm"
   viewBox="0 0 150 150"
   version="1.1"
   id="svg8"
   sodipodi:docname="lecture-icon.svg"
   inkscape:version="1.0 (4035a4fb49, 2020-05-01)">
  <defs
     id="defs2" />
  <sodipodi:namedview
     id="base"
     pagecolor="#ffffff"
     bordercolor="#666666"
     borderopacity="1.0"
     inkscape:pageopacity="0.0"
     inkscape:pageshadow="2"
     inkscape:zoom="0.3217416"
     inkscape:cx="31.877198"
     inkscape:cy="560"
     inkscape:document-units="mm"
     inkscape:current-layer="layer1"
     inkscape:document-rotation="0"
     showgrid="false"
     inkscape:window-width="1366"
     inkscape:window-height="705"
     inkscape:window-x="-8"
     inkscape:window-y="-8"
     inkscape:window-maximized="1" />
  <metadata
     id="metadata5">
    <rdf:RDF>
      <cc:Work
         rdf:about="">
        <dc:format>image/svg+xml</dc:format>
        <dc:type
           rdf:resource="http://purl.org/dc/dcmitype/StillImage" />
        <dc:title />
      </cc:Work>
    </rdf:RDF>
  </metadata>
  <g
     inkscape:label="Layer 1"
     inkscape:groupmode="layer"
     id="layer1">
    <circle
       style="opacity:0.98366;fill:#5f8dd3;stroke:#000000;stroke-width:0.291999"
       id="path31"
       cy="76.085548"
       cx="73.7202"
       r="72.143288" />
    <g
       id="g238"
       transform="matrix(0.20216435,0,0,0.18245299,20.864206,32.691055)"
       inkscape:transform-center-x="-14.192123"
       inkscape:transform-center-y="15.769025"
       style="fill:#ffffff">
      <g
         id="g55"
         style="fill:#ffffff">
        <g
           id="g53"
           style="fill:#ffffff">
          <path
             id="path51"
             d="M 123.584,102.504 C 114.582,93.2 102.178,87.963 89.232,88 h -2.464 c -12.933,-0.026 -25.319,5.21 -34.312,14.504 -8.46,8.698 -12.952,20.503 -12.416,32.624 l 0.936,21.536 c 1.418,24.644 22.039,43.772 46.72,43.336 h 0.608 c 24.681,0.436 45.302,-18.692 46.72,-43.336 L 136,135.128 c 0.536,-12.121 -3.956,-23.926 -12.416,-32.624 z M 119.04,156 c -1.084,16.063 -14.642,28.414 -30.736,28 H 87.696 C 71.602,184.414 58.044,172.063 56.96,156 l -0.28,-6.536 c 15.25,-0.679 29.893,-6.174 41.824,-15.696 4.92,7.276 12.347,12.485 20.864,14.632 z m -10.032,-37.816 c -0.445,-3.412 -3.023,-6.157 -6.4,-6.816 -3.365,-0.696 -6.795,0.854 -8.496,3.84 -0.104,0.168 -10.032,15.872 -38.048,18.272 -0.069,-7.412 2.782,-14.553 7.936,-19.88 5.973,-6.155 14.191,-9.62 22.768,-9.6 h 2.464 c 8.577,-0.02 16.795,3.445 22.768,9.6 4.667,4.863 7.437,11.238 7.808,17.968 -5.536,-2.474 -9.552,-7.45 -10.8,-13.384 z"
             style="fill:#ffffff" />
        </g>
      </g>
      <g
         id="g61"
         style="fill:#ffffff">
        <g
           id="g59"
           style="fill:#ffffff">
          <path
             id="path57"
             d="M 435.584,294.504 C 426.582,285.2 414.178,279.963 401.232,280 h -2.464 c -12.933,-0.026 -25.319,5.21 -34.312,14.504 -8.46,8.698 -12.953,20.503 -12.416,32.624 l 0.936,21.536 c 1.418,24.644 22.039,43.772 46.72,43.336 h 0.608 c 24.681,0.436 45.302,-18.692 46.72,-43.336 L 448,327.128 c 0.536,-12.121 -3.956,-23.926 -12.416,-32.624 z M 432,326.48 431.04,348 c -1.084,16.063 -14.642,28.414 -30.736,28 h -0.608 c -16.094,0.414 -29.652,-11.937 -30.736,-28 L 368,326.44 c -0.309,-7.751 2.584,-15.287 8,-20.84 5.973,-6.155 14.191,-9.62 22.768,-9.6 h 2.464 c 8.577,-0.02 16.795,3.445 22.768,9.6 5.426,5.563 8.32,13.116 8,20.88 z"
             style="fill:#ffffff" />
        </g>
      </g>
      <g
         id="g67"
         style="fill:#ffffff">
        <g
           id="g65"
           style="fill:#ffffff">
          <path
             id="path63"
             d="m 247.134,116.344 c -8.584,-8.303 -22.206,-8.303 -30.79,0 l -89.312,89.312 c -1.502,1.502 -3.54,2.346 -5.664,2.344 H 40 C 17.92,208.026 0.026,225.92 0,248 v 112 c 0,13.255 10.745,24 24,24 2.725,0 5.43,-0.463 8,-1.368 V 392 c 0,4.418 3.582,8 8,8 h 96 c 4.418,0 8,-3.582 8,-8 V 262.288 c -0.001,-2.024 0.765,-3.974 2.144,-5.456 L 247.656,147.656 c 8.503,-8.79 8.269,-22.809 -0.522,-31.312 z m -10.903,20.125 c -0.029,0.028 -0.058,0.056 -0.087,0.083 L 134.4,245.944 c -4.12,4.445 -6.407,10.283 -6.4,16.344 V 384 H 48 V 264 c 0,-4.418 -3.582,-8 -8,-8 -4.418,0 -8,3.582 -8,8 v 96 c 0,4.418 -3.582,8 -8,8 -4.418,0 -8,-3.582 -8,-8 V 248 c 0,-13.255 10.745,-24 24,-24 h 81.368 c 6.371,0.02 12.485,-2.512 16.976,-7.032 l 89.312,-89.312 c 2.435,-2.31 6.253,-2.31 8.688,0 2.402,2.465 2.352,6.411 -0.113,8.813 z"
             style="fill:#ffffff" />
        </g>
      </g>
      <g
         id="g73"
         style="fill:#ffffff">
        <g
           id="g71"
           style="fill:#ffffff">
          <path
             id="path69"
             d="m 88,232 c -4.418,0 -8,3.582 -8,8 v 96 c 0,4.418 3.582,8 8,8 4.418,0 8,-3.582 8,-8 v -96 c 0,-4.418 -3.582,-8 -8,-8 z"
             style="fill:#ffffff" />
        </g>
      </g>
      <g
         id="g79"
         style="fill:#ffffff">
        <g
           id="g77"
           style="fill:#ffffff">
          <path
             id="path75"
             d="M 259.544,294.504 C 250.551,285.21 238.165,279.974 225.232,280 h -2.464 c -12.933,-0.026 -25.319,5.21 -34.312,14.504 -8.46,8.698 -12.953,20.503 -12.416,32.624 l 0.936,21.536 c 1.418,24.644 22.039,43.772 46.72,43.336 h 0.608 c 24.681,0.436 45.302,-18.692 46.72,-43.336 l 0.936,-21.536 c 0.537,-12.121 -3.956,-23.926 -12.416,-32.624 z M 256,326.48 255.04,348 c -1.084,16.063 -14.642,28.414 -30.736,28 h -0.608 c -16.094,0.414 -29.652,-11.937 -30.736,-28 L 192,326.44 c -0.309,-7.751 2.584,-15.287 8,-20.84 5.973,-6.155 14.191,-9.62 22.768,-9.6 h 2.464 c 8.577,-0.02 16.795,3.445 22.768,9.6 5.426,5.563 8.32,13.116 8,20.88 z"
             style="fill:#ffffff" />
        </g>
      </g>
      <g
         id="g85"
         style="fill:#ffffff">
        <g
           id="g83"
           style="fill:#ffffff">
          <path
             id="path81"
             d="M 265.336,400 H 182.664 C 161.32,400.022 144.022,417.32 144,438.664 V 472 c 0,4.418 3.582,8 8,8 4.418,0 8,-3.582 8,-8 v -33.336 c 0.013,-12.512 10.153,-22.651 22.664,-22.664 h 82.672 c 12.512,0.013 22.651,10.152 22.664,22.664 V 472 c 0,4.418 3.582,8 8,8 4.418,0 8,-3.582 8,-8 V 438.664 C 303.978,417.32 286.68,400.022 265.336,400 Z"
             style="fill:#ffffff" />
        </g>
      </g>
      <g
         id="g91"
         style="fill:#ffffff">
        <g
           id="g89"
           style="fill:#ffffff">
          <path
             id="path87"
             d="M 441.336,400 H 358.664 C 337.32,400.022 320.022,417.32 320,438.664 V 472 c 0,4.418 3.582,8 8,8 4.418,0 8,-3.582 8,-8 v -33.336 c 0.013,-12.512 10.153,-22.651 22.664,-22.664 h 82.672 c 12.512,0.013 22.651,10.152 22.664,22.664 V 472 c 0,4.418 3.582,8 8,8 4.418,0 8,-3.582 8,-8 V 438.664 C 479.978,417.32 462.68,400.022 441.336,400 Z"
             style="fill:#ffffff" />
        </g>
      </g>
      <g
         id="g97"
         style="fill:#ffffff">
        <g
           id="g95"
           style="fill:#ffffff">
          <path
             id="path93"
             d="M 456.4,0 H 175.6 C 162.463,0.128 151.907,10.863 152,24 v 120 c 0,4.418 3.582,8 8,8 4.418,0 8,-3.582 8,-8 V 48 h 296 v 192 c 0.103,4.305 -3.295,7.882 -7.6,8 h -273 c -4.418,0 -8,3.582 -8,8 0,4.418 3.582,8 8,8 h 273 c 13.137,-0.128 23.693,-10.863 23.6,-24 V 24 C 480.093,10.863 469.537,0.128 456.4,0 Z M 464,32 H 168 v -8 c -0.103,-4.305 3.295,-7.882 7.6,-8 h 280.8 c 4.305,0.118 7.703,3.695 7.6,8 z"
             style="fill:#ffffff" />
        </g>
      </g>
      <g
         id="g103"
         style="fill:#ffffff">
        <g
           id="g101"
           style="fill:#ffffff">
          <path
             id="path99"
             d="m 440,102 c -4.418,0 -8,3.582 -8,8 v 114 c 0,4.418 3.582,8 8,8 4.418,0 8,-3.582 8,-8 V 110 c 0,-4.418 -3.582,-8 -8,-8 z"
             style="fill:#ffffff" />
        </g>
      </g>
      <g
         id="g109"
         style="fill:#ffffff">
        <g
           id="g107"
           style="fill:#ffffff">
          <path
             id="path105"
             d="m 408,152 c -4.418,0 -8,3.582 -8,8 v 64 c 0,4.418 3.582,8 8,8 4.418,0 8,-3.582 8,-8 v -64 c 0,-4.418 -3.582,-8 -8,-8 z"
             style="fill:#ffffff" />
        </g>
      </g>
      <g
         id="g115"
         style="fill:#ffffff">
        <g
           id="g113"
           style="fill:#ffffff">
          <path
             id="path111"
             d="m 376,136 c -4.418,0 -8,3.582 -8,8 v 80 c 0,4.418 3.582,8 8,8 4.418,0 8,-3.582 8,-8 v -80 c 0,-4.418 -3.582,-8 -8,-8 z"
             style="fill:#ffffff" />
        </g>
      </g>
      <g
         id="g121"
         style="fill:#ffffff">
        <g
           id="g119"
           style="fill:#ffffff">
          <path
             id="path117"
             d="m 344,184 c -4.418,0 -8,3.582 -8,8 v 32 c 0,4.418 3.582,8 8,8 4.418,0 8,-3.582 8,-8 v -32 c 0,-4.418 -3.582,-8 -8,-8 z"
             style="fill:#ffffff" />
        </g>
      </g>
      <g
         id="g127"
         style="fill:#ffffff">
        <g
           id="g125"
           style="fill:#ffffff">
          <path
             id="path123"
             d="m 444.44,65.344 c -3.676,-2.452 -8.644,-1.46 -11.096,2.216 L 406.032,108.52 380.8,89.6 c -3.521,-2.669 -8.539,-1.977 -11.208,1.544 -0.304,0.401 -0.569,0.829 -0.792,1.28 L 337.648,154.736 307.2,177.6 c -3.535,2.651 -4.251,7.665 -1.6,11.2 2.651,3.535 7.665,4.251 11.2,1.6 l 32,-24 c 1.008,-0.742 1.83,-1.709 2.4,-2.824 L 378.904,108.152 403.2,126.4 c 3.534,2.651 8.549,1.936 11.2,-1.599 0.089,-0.118 0.174,-0.239 0.256,-0.361 l 32,-48 c 2.452,-3.676 1.46,-8.644 -2.216,-11.096 z"
             style="fill:#ffffff" />
        </g>
      </g>
      <g
         id="g133"
         style="fill:#ffffff">
        <g
           id="g131"
           style="fill:#ffffff">
          <path
             id="path129"
             d="m 288,64 h -96 c -4.418,0 -8,3.582 -8,8 0,4.418 3.582,8 8,8 h 96 c 4.418,0 8,-3.582 8,-8 0,-4.418 -3.582,-8 -8,-8 z"
             style="fill:#ffffff" />
        </g>
      </g>
      <g
         id="g139"
         style="fill:#ffffff">
        <g
           id="g137"
           style="fill:#ffffff">
          <path
             id="path135"
             d="m 336,64 h -16 c -4.418,0 -8,3.582 -8,8 0,4.418 3.582,8 8,8 h 16 c 4.418,0 8,-3.582 8,-8 0,-4.418 -3.582,-8 -8,-8 z"
             style="fill:#ffffff" />
        </g>
      </g>
      <g
         id="g141"
         style="fill:#ffffff" />
      <g
         id="g143"
         style="fill:#ffffff" />
      <g
         id="g145"
         style="fill:#ffffff" />
      <g
         id="g147"
         style="fill:#ffffff" />
      <g
         id="g149"
         style="fill:#ffffff" />
      <g
         id="g151"
         style="fill:#ffffff" />
      <g
         id="g153"
         style="fill:#ffffff" />
      <g
         id="g155"
         style="fill:#ffffff" />
      <g
         id="g157"
         style="fill:#ffffff" />
      <g
         id="g159"
         style="fill:#ffffff" />
      <g
         id="g161"
         style="fill:#ffffff" />
      <g
         id="g163"
         style="fill:#ffffff" />
      <g
         id="g165"
         style="fill:#ffffff" />
      <g
         id="g167"
         style="fill:#ffffff" />
      <g
         id="g169"
         style="fill:#ffffff" />
    </g>
  </g>
</svg>
