<?xml version="1.0" encoding="UTF-8" standalone="no"?>
<svg
   xmlns:dc="http://purl.org/dc/elements/1.1/"
   xmlns:cc="http://creativecommons.org/ns#"
   xmlns:rdf="http://www.w3.org/1999/02/22-rdf-syntax-ns#"
   xmlns:svg="http://www.w3.org/2000/svg"
   xmlns="http://www.w3.org/2000/svg"
   xmlns:xlink="http://www.w3.org/1999/xlink"
   xmlns:sodipodi="http://sodipodi.sourceforge.net/DTD/sodipodi-0.dtd"
   xmlns:inkscape="http://www.inkscape.org/namespaces/inkscape"
   inkscape:version="1.0 (4035a4fb49, 2020-05-01)"
   sodipodi:docname="logo-cvdl-modified.svg"
   id="svg472"
   version="1.1"
   viewBox="0 0 495.16 382.7">
  <metadata
     id="metadata476">
    <rdf:RDF>
      <cc:Work
         rdf:about="">
        <dc:format>image/svg+xml</dc:format>
        <dc:type
           rdf:resource="http://purl.org/dc/dcmitype/StillImage" />
      </cc:Work>
    </rdf:RDF>
  </metadata>
  <sodipodi:namedview
     inkscape:current-layer="Layer_2"
     inkscape:window-maximized="1"
     inkscape:window-y="-8"
     inkscape:window-x="-8"
     inkscape:cy="175.52578"
     inkscape:cx="263.29935"
     inkscape:zoom="1.4058009"
     showgrid="false"
     id="namedview474"
     inkscape:window-height="705"
     inkscape:window-width="1366"
     inkscape:pageshadow="2"
     inkscape:pageopacity="0"
     guidetolerance="10"
     gridtolerance="10"
     objecttolerance="10"
     borderopacity="1"
     bordercolor="#666666"
     pagecolor="#ffffff" />
  <defs
     id="defs424">
    <style
       id="style244">.cls-1{fill:url(#linear-gradient);}.cls-2{fill:url(#linear-gradient-2);}.cls-3{fill:url(#Nueva_muestra_de_degradado_26);}.cls-4{fill:url(#linear-gradient-3);}.cls-5{fill:url(#linear-gradient-4);}.cls-6{fill:url(#linear-gradient-5);}.cls-7{fill:url(#linear-gradient-6);}.cls-8{fill:url(#Nueva_muestra_de_degradado_26-2);}.cls-9{fill:url(#linear-gradient-7);}.cls-10{fill:url(#linear-gradient-8);}.cls-11{fill:url(#Nueva_muestra_de_degradado_26-3);}.cls-12{fill:url(#linear-gradient-9);}.cls-13{fill:url(#linear-gradient-10);}.cls-14{fill:url(#linear-gradient-11);}.cls-15{fill:url(#linear-gradient-12);}.cls-16{fill:url(#linear-gradient-13);}.cls-17{fill:url(#Degradado_sin_nombre_854);}.cls-18{fill:url(#linear-gradient-14);}.cls-19{fill:url(#linear-gradient-15);}.cls-20{fill:url(#linear-gradient-16);}.cls-21{fill:url(#linear-gradient-17);}.cls-22{fill:url(#linear-gradient-18);}</style>
    <linearGradient
       gradientUnits="userSpaceOnUse"
       y2="355.91"
       x2="585.39"
       y1="355.91"
       x1="260.48"
       id="linear-gradient">
      <stop
         id="stop246"
         stop-color="#efeded"
         offset="0" />
      <stop
         id="stop248"
         stop-color="#666669"
         offset="0.19" />
      <stop
         id="stop250"
         stop-color="#848789"
         offset="0.46" />
      <stop
         id="stop252"
         stop-color="#504e53"
         offset="0.73" />
      <stop
         id="stop254"
         stop-color="#57565a"
         offset="0.93" />
    </linearGradient>
    <linearGradient
       gradientUnits="userSpaceOnUse"
       y2="239.5"
       x2="178"
       y1="289.76"
       x1="60.54"
       id="linear-gradient-2">
      <stop
         id="stop257"
         stop-color="#4e4d52"
         offset="0.23" />
      <stop
         id="stop259"
         stop-color="#59585d"
         offset="0.26" />
      <stop
         id="stop261"
         stop-color="#78777b"
         offset="0.32" />
      <stop
         id="stop263"
         stop-color="#a9a8aa"
         offset="0.4" />
      <stop
         id="stop265"
         stop-color="#edecec"
         offset="0.5" />
      <stop
         id="stop267"
         stop-color="#f9f8f8"
         offset="0.52" />
      <stop
         id="stop269"
         stop-color="#efeeee"
         offset="0.53" />
      <stop
         id="stop271"
         stop-color="#d6d6d6"
         offset="0.58" />
      <stop
         id="stop273"
         stop-color="#c4c5c5"
         offset="0.63" />
      <stop
         id="stop275"
         stop-color="#b9baba"
         offset="0.68" />
      <stop
         id="stop277"
         stop-color="#b6b7b7"
         offset="0.74" />
      <stop
         id="stop279"
         stop-color="#a2a3a4"
         offset="0.79" />
      <stop
         id="stop281"
         stop-color="#707073"
         offset="0.89" />
      <stop
         id="stop283"
         stop-color="#57575b"
         offset="0.94" />
    </linearGradient>
    <linearGradient
       gradientUnits="userSpaceOnUse"
       y2="259.47"
       x2="132.49"
       y1="259.47"
       x1="8.53"
       id="Nueva_muestra_de_degradado_26">
      <stop
         id="stop286"
         stop-color="#8c9096"
         offset="0.01" />
      <stop
         id="stop288"
         stop-color="#979c9c"
         offset="0.26" />
      <stop
         id="stop290"
         stop-color="#fff"
         offset="0.47" />
      <stop
         id="stop292"
         stop-color="#d3d5d5"
         offset="0.56" />
      <stop
         id="stop294"
         stop-color="#979c9c"
         offset="0.69" />
      <stop
         id="stop296"
         stop-color="#2d292f"
         offset="1" />
    </linearGradient>
    <linearGradient
       gradientUnits="userSpaceOnUse"
       y2="303.46"
       x2="18.69"
       y1="106.8"
       x1="160.12"
       id="linear-gradient-3">
      <stop
         id="stop299"
         stop-color="#eeecec"
         offset="0" />
      <stop
         id="stop301"
         stop-color="#727074"
         offset="0.2" />
      <stop
         id="stop303"
         stop-color="#38363c"
         offset="0.3" />
      <stop
         id="stop305"
         stop-color="#3e3c42"
         offset="0.36" />
      <stop
         id="stop307"
         stop-color="#4f4d52"
         offset="0.44" />
      <stop
         id="stop309"
         stop-color="#6c6a6e"
         offset="0.53" />
      <stop
         id="stop311"
         stop-color="#949293"
         offset="0.63" />
      <stop
         id="stop313"
         stop-color="#c6c4c3"
         offset="0.74" />
      <stop
         id="stop315"
         stop-color="#d0cecd"
         offset="0.76" />
      <stop
         id="stop317"
         stop-color="#a9a8a8"
         offset="0.81" />
      <stop
         id="stop319"
         stop-color="#878688"
         offset="0.86" />
      <stop
         id="stop321"
         stop-color="#6e6e70"
         offset="0.91" />
      <stop
         id="stop323"
         stop-color="#5f5f62"
         offset="0.96" />
      <stop
         id="stop325"
         stop-color="#5a5a5d"
         offset="1" />
    </linearGradient>
    <linearGradient
       gradientUnits="userSpaceOnUse"
       y2="75.37"
       x2="356.69"
       y1="257.93"
       x1="71.94"
       id="linear-gradient-4">
      <stop
         id="stop328"
         stop-color="#4c4a4f"
         offset="0" />
      <stop
         id="stop330"
         stop-color="#514f54"
         offset="0.03" />
      <stop
         id="stop332"
         stop-color="#615f63"
         offset="0.06" />
      <stop
         id="stop334"
         stop-color="#7b797c"
         offset="0.1" />
      <stop
         id="stop336"
         stop-color="#9f9d9e"
         offset="0.15" />
      <stop
         id="stop338"
         stop-color="#cccac9"
         offset="0.19" />
      <stop
         id="stop340"
         stop-color="#d0cecd"
         offset="0.19" />
      <stop
         id="stop342"
         stop-color="#c5c4c3"
         offset="0.21" />
      <stop
         id="stop344"
         stop-color="#949394"
         offset="0.29" />
      <stop
         id="stop346"
         stop-color="#757577"
         offset="0.35" />
      <stop
         id="stop348"
         stop-color="#6a6a6c"
         offset="0.39" />
      <stop
         id="stop350"
         stop-color="#f1efee"
         offset="0.59" />
      <stop
         id="stop352"
         stop-color="#4c4a4f"
         offset="0.83" />
    </linearGradient>
    <linearGradient
       xlink:href="#linear-gradient-4"
       y2="209.83"
       x2="405.09"
       y1="292.33"
       x1="271.21"
       id="linear-gradient-5" />
    <linearGradient
       xlink:href="#linear-gradient-4"
       y2="98.4"
       x2="481"
       y1="222.81"
       x1="252.09"
       id="linear-gradient-6" />
    <linearGradient
       xlink:href="#Nueva_muestra_de_degradado_26"
       y2="213.85"
       x2="402.71"
       y1="269.63"
       x1="183.99"
       id="Nueva_muestra_de_degradado_26-2" />
    <linearGradient
       xlink:href="#linear-gradient"
       y2="282.36"
       x2="164.8"
       y1="201.48"
       x1="333.16"
       id="linear-gradient-7" />
    <linearGradient
       xlink:href="#linear-gradient-4"
       y2="119.31"
       x2="641.56"
       y1="249.64"
       x1="384.93"
       id="linear-gradient-8" />
    <linearGradient
       xlink:href="#Nueva_muestra_de_degradado_26"
       y2="216.43"
       x2="184.16"
       y1="216.43"
       x1="21.93"
       id="Nueva_muestra_de_degradado_26-3" />
    <linearGradient
       xlink:href="#linear-gradient"
       y2="70.66"
       x2="242.37"
       y1="130.02"
       x1="111.48"
       id="linear-gradient-9" />
    <linearGradient
       gradientUnits="userSpaceOnUse"
       y2="10.94"
       x2="15.77"
       y1="128.78"
       x1="149.77"
       id="linear-gradient-10">
      <stop
         id="stop362"
         stop-color="#969b9d"
         offset="0.01" />
      <stop
         id="stop364"
         stop-color="#888c8e"
         offset="0.08" />
      <stop
         id="stop366"
         stop-color="#636368"
         offset="0.21" />
      <stop
         id="stop368"
         stop-color="#444248"
         offset="0.31" />
      <stop
         id="stop370"
         stop-color="#46444a"
         offset="0.43" />
      <stop
         id="stop372"
         stop-color="#4d4b50"
         offset="0.47" />
      <stop
         id="stop374"
         stop-color="#58565b"
         offset="0.5" />
      <stop
         id="stop376"
         stop-color="#69676b"
         offset="0.52" />
      <stop
         id="stop378"
         stop-color="#7f7d80"
         offset="0.54" />
      <stop
         id="stop380"
         stop-color="#9a999a"
         offset="0.56" />
      <stop
         id="stop382"
         stop-color="#b9b8b8"
         offset="0.58" />
      <stop
         id="stop384"
         stop-color="#c7c6c5"
         offset="0.58" />
      <stop
         id="stop386"
         stop-color="#c4c3c2"
         offset="0.67" />
      <stop
         id="stop388"
         stop-color="#bab9b9"
         offset="0.74" />
      <stop
         id="stop390"
         stop-color="#a9a8a9"
         offset="0.8" />
      <stop
         id="stop392"
         stop-color="#929092"
         offset="0.86" />
      <stop
         id="stop394"
         stop-color="#747275"
         offset="0.92" />
      <stop
         id="stop396"
         stop-color="#4f4d52"
         offset="0.98" />
      <stop
         id="stop398"
         stop-color="#3d3b41"
         offset="1" />
    </linearGradient>
    <linearGradient
       xlink:href="#linear-gradient"
       y2="152.57"
       x2="12.11"
       y1="51.47"
       x1="105.32"
       id="linear-gradient-11" />
    <linearGradient
       xlink:href="#linear-gradient"
       y2="69.07"
       x2="37.63"
       y1="28.13"
       x1="79.9"
       id="linear-gradient-12" />
    <linearGradient
       xlink:href="#linear-gradient"
       y2="-3.3"
       x2="115.53"
       y1="74.6"
       x1="22.58"
       id="linear-gradient-13" />
    <linearGradient
       gradientUnits="userSpaceOnUse"
       y2="92.65"
       x2="74.98"
       y1="35.97"
       x1="158.7"
       id="Degradado_sin_nombre_854">
      <stop
         id="stop404"
         stop-color="#8c9096"
         offset="0.01" />
      <stop
         id="stop406"
         stop-color="#979c9c"
         offset="0.26" />
      <stop
         id="stop408"
         stop-color="#fff"
         offset="0.47" />
      <stop
         id="stop410"
         stop-color="#f2f1f1"
         offset="0.49" />
      <stop
         id="stop412"
         stop-color="#d3d4d4"
         offset="0.56" />
      <stop
         id="stop414"
         stop-color="#979c9c"
         offset="0.69" />
      <stop
         id="stop416"
         stop-color="#2d292f"
         offset="1" />
    </linearGradient>
    <linearGradient
       xlink:href="#linear-gradient-4"
       y2="147.13"
       x2="177.48"
       y1="42.9"
       x1="105.75"
       id="linear-gradient-14" />
    <linearGradient
       xlink:href="#linear-gradient"
       y2="16.05"
       x2="225.05"
       y1="49.22"
       x1="129.19"
       id="linear-gradient-15" />
    <linearGradient
       xlink:href="#linear-gradient"
       y2="36.67"
       x2="110.34"
       y1="-15.52"
       x1="206.92"
       id="linear-gradient-16" />
    <linearGradient
       xlink:href="#linear-gradient"
       y2="645.38"
       x2="200.23"
       y1="57.33"
       x1="472.96"
       id="linear-gradient-17" />
    <linearGradient
       xlink:href="#linear-gradient"
       gradientTransform="matrix(0.85, -0.64, 0.6, 0.8, -379.77, -1199.61)"
       y2="1371.03"
       x2="-480.26"
       y1="1271.82"
       x1="-388.79"
       id="linear-gradient-18" />
  </defs>
  <g
     data-name="Layer 2"
     id="Layer_2">
    <g
       data-name="Capa 1"
       id="Capa_1">
      <path
         style="fill:#272a31;fill-opacity:1"
         id="path428"
         d="M151.91,278.89c-1.41.81-2.84,1.59-4.3,2.31h0a79.93,79.93,0,0,1-7.82,3.4,82,82,0,0,1-87.86-20A83.21,83.21,0,0,0,135,249.43l13.89,24.23,1.8,3.14Z"
         class="cls-2" />
      <path
         id="path430"
         d="M135,249.43a83.21,83.21,0,0,1-83.09,15.15,79.94,79.94,0,0,1-7.66-9.26,85.43,85.43,0,0,0,90.65-6.06Z"
         class="cls-3" />
      <path
         style="fill:#272a31;fill-opacity:1"
         id="path432"
         d="M134.92,249.26a85.43,85.43,0,0,1-90.65,6.06,81.85,81.85,0,0,1,6.4-102.74,83.95,83.95,0,0,1,82.42,13,47.71,47.71,0,1,0,1.82,83.65Z"
         class="cls-4" />
      <path
         style="fill:#272a31;fill-opacity:1"
         id="path434"
         d="M232.62,255.42l-19.71,34.37v0l-19.7-34.35L185.53,242,165.7,207.44l-3.3-5.76-8.65-15.1,0-.08a50.43,50.43,0,0,0-2.56-4.46h0c-.42-.65-.85-1.29-1.3-1.92a0,0,0,0,1,0,0,83.25,83.25,0,0,0-93-33.55A81.56,81.56,0,0,1,111.05,126a79.46,79.46,0,0,1,8.21.41,81.37,81.37,0,0,1,42.8,17.42,82.28,82.28,0,0,1,18.28,20.38l0,.05,3.45,6,.07.12,29,50.64,19.7,34.35Z"
         class="cls-5" />
      <path
         style="fill:#272a31;fill-opacity:1"
         id="path436"
         d="M396.72,207.91a81.9,81.9,0,0,1-81.91,81.89h-.68A81.31,81.31,0,0,1,279.94,282V248.3a82.69,82.69,0,0,0,33.64,7.3h2.24l1.45,0,.26,0a83.12,83.12,0,0,0,76.84-61.39c.25-.9.48-1.8.69-2.72,0,.13.05.26.07.39A81.32,81.32,0,0,1,396.72,207.91Z"
         class="cls-6" />
      <path
         style="fill:#272a31;fill-opacity:1"
         id="path438"
         d="M395.06,191.42c-.21.92-.44,1.82-.69,2.72a85.1,85.1,0,0,1-51.27,52.19,47.71,47.71,0,1,0-61.41-72.76c-.59.58-1.18,1.18-1.75,1.79a46.75,46.75,0,0,0-5.66,7.38l0,.08c-.58.93-1.12,1.87-1.63,2.84l0,.05L251,223.33l-1.12,1.94L240.31,242l-7.69,13.44L212.91,221l19-33.15.36-.63,10.29-18,.06-.08,2.15-3.78,0-.09a81.9,81.9,0,0,1,61.74-38.93,80.38,80.38,0,0,1,8.25-.41A81.93,81.93,0,0,1,395.06,191.42Z"
         class="cls-7" />
      <path
         id="path440"
         d="M394.37,194.14a83.12,83.12,0,0,1-76.84,61.39l-.26,0-1.45,0h-2.24a82.69,82.69,0,0,1-33.64-7.3v-4a84.51,84.51,0,0,0,34.15,7.15h0a84.79,84.79,0,0,0,80.24-57.28Z"
         class="cls-8" />
      <path
         style="fill:#272a31;fill-opacity:1"
         id="path442"
         d="M314.13,173.57v77.85h0a84.51,84.51,0,0,1-34.15-7.15V205.92A34.27,34.27,0,0,1,314.13,173.57Z"
         class="cls-9" />
      <path
         style="fill:#272a31;fill-opacity:1"
         id="path444"
         d="M495.16,289.8H429.88a16.32,16.32,0,0,1-3.24-.38,17.11,17.11,0,0,1-13.41-16.26V158a34.25,34.25,0,0,1,32-32h2.2v129.6H463.1A34.27,34.27,0,0,1,495.16,289.8Z"
         class="cls-10" />
      <path
         id="path446"
         d="M212.9,289.77l-58.41-98.38c-.75-1.43-1.56-2.83-2.4-4.2l-1.44-2.51-.12.06a84.58,84.58,0,0,0-17.44-19.16,83.95,83.95,0,0,0-82.42-13,79.44,79.44,0,0,1,6.14-6,83.25,83.25,0,0,1,93,33.55,0,0,0,0,0,0,0c.45.63.88,1.27,1.3,1.92h0a50.43,50.43,0,0,1,2.56,4.46l0,.08,8.65,15.1,3.3,5.76L185.53,242l7.67,13.4Z"
         class="cls-11" />
      <path
         style="fill:#ec5242;fill-opacity:1;opacity:1;"
         id="path450"
         d="M117.29,31.16a13.52,13.52,0,0,1-1.66,6.42c-.16.39-.35.78-.56,1.18a39.81,39.81,0,0,1-4.94,7.08C97.63,60.62,69.94,80.37,52,91.24q2.91,0,6.2.28c-2.33-.18-4.69-.26-7.06-.26a94.51,94.51,0,0,0-13,.89q-2.71.38-5.37.9c-.39.08-.77.15-1.15.24q-3.15.66-6.24,1.54A109.36,109.36,0,0,0,57.18,78.36l.08-.07c1.45-1.08,2.86-2.19,4.25-3.34A352.41,352.41,0,0,0,90.6,49.26c1.16-1.17,2.29-2.34,3.38-3.49a108.07,108.07,0,0,0,7.13-8.33c3.81-5,6.12-9.38,6.12-12.64a5.91,5.91,0,0,0-.06-.95,5.18,5.18,0,0,0-.33-1.37,13,13,0,0,0-3-5.16.38.38,0,0,0-.09-.09,12.67,12.67,0,0,0-2.33-1.92l0,0-.3-.2a17.06,17.06,0,0,0-2.82-1.45C109.21,15.69,117.29,22.76,117.29,31.16Z"
         class="cls-13" />
      <path
         style="fill:#ec5242;fill-opacity:1"
         id="path452"
         d="M103.72,107.34l-.09,0a105.32,105.32,0,0,0-17.28-5.91,78.05,78.05,0,0,0-20.7-2.78l-1.52,0a77.75,77.75,0,0,0-47.88,17.61,14.24,14.24,0,0,1-6.38-9.42.44.44,0,0,1,0-.1,13.36,13.36,0,0,1-.22-2.29v-.24a14.25,14.25,0,0,1,.44-3.54c.62-.31,1.25-.6,1.88-.89a93.22,93.22,0,0,1,10.13-4c1.08-.35,2.18-.69,3.28-1q3.09-.89,6.24-1.54c.38-.09.76-.16,1.15-.24q2.66-.52,5.37-.9a94.51,94.51,0,0,1,13-.89c2.37,0,4.73.08,7.06.26.76.06,1.53.14,2.32.23a115.85,115.85,0,0,1,17.18,3.31A93.45,93.45,0,0,1,103.72,107.34Z"
         class="cls-14" />
      <path
         style="fill:#ec5242;fill-opacity:1"
         id="path454"
         d="M76.56,42.88a18,18,0,0,1-1,2.37c-3.88,8-15.51,22.11-23.81,22.11l-.66,0h0a6.38,6.38,0,0,1-1.25-.13,17.81,17.81,0,0,1-10.12-5.5A9.79,9.79,0,0,1,37,55.27a11.68,11.68,0,0,1,.52-3.21C36.43,59.91,42,62.15,45.63,62.78h0A8.92,8.92,0,0,0,51.06,62a45.37,45.37,0,0,0,5.54-3.18A125.62,125.62,0,0,0,70.38,47.6c1.17-1.06,2.36-2.19,3.58-3.36.59-.57,1.2-1.16,1.8-1.76C76.16,42.08,76.76,42.18,76.56,42.88Z"
         class="cls-15" />
      <path
         style="fill:#ec5242;fill-opacity:1"
         id="path456"
         d="M106.84,22.48c-.9-2.31-3.46-3.78-8.9-3.78h-.41c-5.09.09-10.52,1.84-15.88,4.61A68.12,68.12,0,0,0,75.45,27c-1.87,1.23-3.71,2.55-5.49,3.94q-1.84,1.43-3.61,2.93c-10.63,9-19,19.81-20.87,25.37a5.94,5.94,0,0,0-.29,1c0,.08,0,.16,0,.24h0a4.39,4.39,0,0,0-.06.69v.14h0a.41.41,0,0,0,0,.11,1.89,1.89,0,0,0,.53,1.36c-3.67-.63-9.2-2.87-8.11-10.72h0C40,43.73,50.69,30.83,63.83,22.27a59.22,59.22,0,0,1,14.63-7.08,47,47,0,0,1,7.87-1.76,36,36,0,0,1,5.35-.4,35.15,35.15,0,0,1,6.58.61,17.06,17.06,0,0,1,2.82,1.45h0l.34.21,0,0a17.1,17.1,0,0,1,2.33,1.92.38.38,0,0,1,.09.09A13,13,0,0,1,106.84,22.48Z"
         class="cls-16" />
      <path
         style="fill:#ec5242;fill-opacity:1"
         id="path458"
         d="M142,47.75a200.47,200.47,0,0,0-22.72,8A111.05,111.05,0,0,0,99.46,66.33a45.55,45.55,0,0,0-6.17,5.11,13.66,13.66,0,0,0,1.88,17.3,4.33,4.33,0,0,1-.4-2.23c.35-5.29,7.59-12.31,17-19.23,2.19-1.61,4.5-3.21,6.87-4.78C126.51,57.3,135,52.41,142,48.65,142.52,48.35,142.52,47.65,142,47.75Z"
         class="cls-17" />
      <path
         style="fill:#ec5242;fill-opacity:1"
         id="path460"
         d="M168.4,69.83c-1.2,16.58-33.67,30.67-49.05,30.67-17.19,0-32.67-8.69-31.67-18.88.34-3.54,2.41-7,5.61-10.18a13.66,13.66,0,0,0,9.65,21.06c.24,0,.47.06.71.07,1,.09,2,.13,3.11.13,9.22,0,23.85-5.14,35.24-11.9,8.85-5.25,15.74-11.47,16.61-17a2,2,0,0,0,0-.26v0a1.64,1.64,0,0,0,0-.22,20.14,20.14,0,0,0,.14-2.34,19.94,19.94,0,0,0-3.33-11.07C163.15,56.38,168.82,63.15,168.4,69.83Z"
         class="cls-18" />
      <path
         style="fill:#ec5242;fill-opacity:1"
         id="path462"
         d="M158.68,63.3c0-.22,0-.45,0-.67,0-2.75-2.58-6.47-6.77-10.54a105.83,105.83,0,0,0-14.2-11.21c-1.69-1.14-3.45-2.27-5.24-3.38l-1-.6-.09-.06a9,9,0,0,1-3.81-7.39v-.2a9.2,9.2,0,0,1,.13-1.38,7.4,7.4,0,0,1,1.14-2.82v.19A10,10,0,0,0,132.62,33l0,0c.26.21.52.39.79.57,2,1.43,4.09,2.9,6.22,4.4l.58.4,4.9,3.48c3.5,2.53,7,5.13,10.11,7.78l.25.21A19.94,19.94,0,0,1,158.82,61,20.14,20.14,0,0,1,158.68,63.3Z"
         class="cls-19" />
      <path
         style="fill:#ec5242;fill-opacity:1"
         id="path464"
         d="M183.09,3.39c-.3,5.49-3.2,12.09-4.5,12.69q-6.28.26-12.57.56c-3.3.17-6.59.34-9.88.54l-2.07.13c-1,.06-1.94.16-2.92.24-1.84.15-3.68.21-5.53.31l-1.25.08c-4.28.3-8.44,1.17-12,3.66a14.78,14.78,0,0,0-1.53,1.21,12,12,0,0,0-2,2.24,7.4,7.4,0,0,0-1.14,2.82,9.2,9.2,0,0,0-.13,1.38v.2a9,9,0,0,0,3.81,7.39L130.07,36a14.48,14.48,0,0,1-3.93-19.91c.45-.6.91-1.2,1.37-1.78h0a47,47,0,0,1,6.11-6.54c2,.79,5.6,1.09,9.09,1.09,9.9,0,24.08-2.49,31.57-4.19,4.5-.9,7.8-2.4,8-4.3V0C182.36,0,183.27.37,183.09,3.39Z"
         class="cls-20" />
      <path
         style="fill:#d3d3d3;fill-opacity:1"
         id="path468"
         d="M82.16,111.43l-.07,0a115.44,115.44,0,0,0-17.92,6.14,86.16,86.16,0,0,0-18.92,10.75l-1.27,1a85.59,85.59,0,0,0-18.8,20.15,82.65,82.65,0,0,0-10.86,23.6,14.65,14.65,0,0,1-5.45-.46,13.6,13.6,0,0,1-5.42-3l-.07-.07a12.85,12.85,0,0,1-1.53-1.67l-.14-.18A13.41,13.41,0,0,1,0,164.68c.34-.63.69-1.25,1.05-1.87a101.38,101.38,0,0,1,6.14-9.43c.7-1,1.42-1.9,2.16-2.84,1.37-1.74,2.8-3.45,4.3-5.11l.83-.9c1.27-1.39,2.59-2.74,3.95-4.07a106.66,106.66,0,0,1,10.34-8.82q3-2.22,6.05-4.2l2.07-1.27A129,129,0,0,1,53.19,118,100.3,100.3,0,0,1,82.16,111.43Z"
         class="cls-22" />
    </g>
  </g>
</svg>
