<?xml version="1.0" encoding="UTF-8" standalone="no"?>
<svg
   xmlns:dc="http://purl.org/dc/elements/1.1/"
   xmlns:cc="http://creativecommons.org/ns#"
   xmlns:rdf="http://www.w3.org/1999/02/22-rdf-syntax-ns#"
   xmlns:svg="http://www.w3.org/2000/svg"
   xmlns="http://www.w3.org/2000/svg"
   xmlns:sodipodi="http://sodipodi.sourceforge.net/DTD/sodipodi-0.dtd"
   xmlns:inkscape="http://www.inkscape.org/namespaces/inkscape"
   sodipodi:docname="logo-cvdl-white.svg"
   inkscape:version="1.0 (4035a4fb49, 2020-05-01)"
   id="svg8"
   version="1.1"
   viewBox="0 0 120 50"
   height="50mm"
   width="120mm">
  <defs
     id="defs2" />
  <sodipodi:namedview
     inkscape:window-maximized="0"
     inkscape:window-y="0"
     inkscape:window-x="0"
     inkscape:window-height="728"
     inkscape:window-width="1350"
     showgrid="false"
     inkscape:document-rotation="0"
     inkscape:current-layer="layer1"
     inkscape:document-units="mm"
     inkscape:cy="152.89646"
     inkscape:cx="207.31489"
     inkscape:zoom="1.4"
     inkscape:pageshadow="2"
     inkscape:pageopacity="0.0"
     borderopacity="1.0"
     bordercolor="#666666"
     pagecolor="#ffffff"
     id="base" />
  <metadata
     id="metadata5">
    <rdf:RDF>
      <cc:Work
         rdf:about="">
        <dc:format>image/svg+xml</dc:format>
        <dc:type
           rdf:resource="http://purl.org/dc/dcmitype/StillImage" />
        <dc:title></dc:title>
      </cc:Work>
    </rdf:RDF>
  </metadata>
  <g
     id="layer1"
     inkscape:groupmode="layer"
     inkscape:label="Layer 1">
    <path
       id="path847"
       d="M 18.889403,43.276402 C 13.906281,42.195152 8.9749866,38.680652 6.3573476,34.344892 2.9000436,28.618342 2.7816036,20.930644 6.0630866,15.245038 9.2000106,9.8098989 16.170142,5.4891269 21.318614,5.7881639 l 1.863932,0.108263 1.534513,3.829403 c 0.843983,2.1061711 1.534514,3.8798661 1.534514,3.9415451 0,0.06168 -1.150938,0.02852 -2.557639,-0.0737 -3.626208,-0.263482 -6.112338,0.697497 -8.761591,3.386674 -2.29436,2.328935 -3.143788,4.377434 -3.146403,7.587943 -0.0024,2.91922 0.913681,5.26904 2.905067,7.45192 2.796347,3.06525 6.507855,4.17971 11.08966,3.32991 6.117808,-1.13468 11.620164,-6.08813 13.124042,-11.814811 0.619012,-2.357169 1.016695,-5.468055 0.699011,-5.468055 -0.164652,0 -0.299371,0.395206 -0.299371,0.878233 0,2.009323 -3.137164,7.941213 -4.199826,7.941213 -0.147348,0 -0.43755,-0.51594 -0.644895,-1.14653 C 34.252286,25.109582 32.500514,20.70427 30.566805,15.950589 26.08444,4.9314979 26.314761,5.7200379 27.578608,5.7200379 c 0.880745,0 1.135787,0.243361 1.847484,1.762863 0.987871,2.109146 1.275663,2.11546 0.533414,0.0117 -0.293113,-0.830772 -0.532934,-1.56991 -0.532934,-1.64253 0,-0.07262 1.484609,-0.132035 3.29913,-0.132035 h 3.29913 l 1.816146,4.6939881 c 0.998883,2.581694 1.816149,5.201069 1.816149,5.820834 0,0.672272 0.165615,1.091267 0.410545,1.03865 0.225799,-0.04851 0.70539,0.864305 1.065756,2.028472 0.360366,1.164167 0.877062,2.592917 1.14821,3.175 0.815178,1.749954 3.014709,7.72883 3.017414,8.20208 0.0049,0.85779 0.59472,0.42553 0.962738,-0.70555 0.205172,-0.63059 0.877517,-2.49591 1.494102,-4.14514 0.616581,-1.649237 1.484566,-4.030487 1.928855,-5.291668 2.03521,-5.777252 5.160168,-9.861795 9.375156,-12.2539961 5.902974,-3.350208 14.480127,-3.42492 20.103171,-0.17511 3.488986,2.0164391 6.588548,5.6546001 7.788239,9.1415701 0.769447,2.236435 0.657021,2.712389 -0.378223,1.601184 -1.916914,-2.057564 -5.972404,-3.595562 -9.49665,-3.601496 -1.260789,-0.0021 -3.219334,-0.307326 -4.409722,-0.687176 -1.177848,-0.375846 -2.5781,-0.775746 -3.111676,-0.888665 -0.533577,-0.11292 -0.970139,-0.334399 -0.970139,-0.492176 0,-0.474892 2.490092,-1.127742 5.115277,-1.341119 2.782785,-0.226186 5.941038,0.608961 8.418935,2.226247 0.749858,0.489421 1.246833,0.701284 1.104389,0.470805 -0.486879,-0.787788 -3.447221,-2.441658 -5.730473,-3.201476 -2.897684,-0.964287 -7.360552,-0.822417 -10.319239,0.328038 -2.54061,0.987889 -5.207656,3.034793 -6.526389,5.008872 -0.582083,0.871348 -3.358451,7.336075 -6.169705,14.366046 -4.993428,12.48685 -5.133848,12.78178 -6.085416,12.78178 -0.535725,0 -0.974044,-0.0973 -0.974044,-0.21617 0,-0.11889 0.954003,-2.76322 2.120011,-5.87628 1.166004,-3.11307 2.067372,-5.71276 2.003036,-5.77709 -0.06433,-0.0643 -1.192163,2.58 -2.506288,5.87629 l -2.389321,5.99325 h -2.435941 c -1.339769,0 -2.435941,-0.0457 -2.435941,-0.1015 0,-0.0558 -0.550767,-1.42721 -1.223927,-3.04751 -1.199201,-2.8865 -1.211287,-2.96461 -0.598287,-3.86725 1.492222,-2.19726 2.518572,-6.18383 2.525106,-9.80805 0.0041,-2.24688 -0.580937,-2.12613 -0.797098,0.16453 -0.7204,7.63406 -7.028345,14.45726 -14.908775,16.12654 -2.988962,0.63314 -4.927383,0.63059 -7.88141,-0.0104 z M 30.880748,10.068025 c -0.41587,-0.7151571 -0.516295,-0.4862531 -0.175872,0.400875 0.120984,0.315278 0.294286,0.498919 0.385115,0.40809 0.09083,-0.09083 -0.0033,-0.454864 -0.209243,-0.808965 z m 22.268266,33.134647 c 0.349853,-1.28087 7.774265,-19.68212 8.070475,-20.002496 0.178886,-0.193481 0.309859,2.378726 0.309859,6.085416 v 6.42056 l 3.968749,-0.004 c 2.229457,-0.002 4.764941,-0.21619 5.785513,-0.48792 1.94152,-0.51695 4.842792,-2.30731 5.185272,-3.19981 0.29669,-0.77315 0.849062,-0.671 1.775174,0.32829 0.960088,1.03595 4.597933,3.01085 5.546115,3.01085 0.879295,0 0.846525,0.23077 -0.233896,1.64728 -1.204827,1.57961 -4.33199,3.85518 -6.79451,4.94423 -3.418645,1.51188 -6.417729,1.87515 -15.480984,1.87515 -7.734183,0 -8.288888,-0.0421 -8.131767,-0.61736 z m 34.133109,0.32608 c 0,-0.1602 0.404661,-0.67144 0.899249,-1.13608 1.328236,-1.24782 3.239868,-4.26121 4.058489,-6.39759 0.513669,-1.34054 1.092217,-2.12831 2.025777,-2.75838 1.920028,-1.29584 1.920314,-1.29573 1.784593,0.66409 l -0.125053,1.80579 9.260412,-2.2e-4 9.26042,-2.1e-4 v 4.05694 4.05694 h -13.58195 c -7.470062,0 -13.581937,-0.13107 -13.581937,-0.29128 z m 0,-4.24124 c 0,-2.34764 0.716982,-3.46225 2.543503,-3.95408 0.774549,-0.20857 1.493672,-0.29381 1.598052,-0.18944 0.278722,0.27873 -2.030723,3.96352 -3.165577,5.05078 l -0.975978,0.93504 z m -20.581572,-7.12445 c -0.925964,-1.54513 -1.598683,-2.94668 -1.494927,-3.11456 0.103751,-0.16788 0.845795,-0.41032 1.648985,-0.53875 1.150084,-0.18391 1.553129,-0.10663 1.89708,0.36376 0.547282,0.74845 1.698678,0.38161 1.526787,-0.48644 -0.136084,-0.6872 -1.476791,-0.79105 -4.03799,-0.31278 -1.263978,0.23603 -1.563232,0.16494 -2.20486,-0.52377 -0.933433,-1.00192 -0.928063,-1.17329 0.05136,-1.63888 0.749667,-0.35636 0.734971,-0.37405 -0.264583,-0.31849 -0.783727,0.0436 -1.058333,-0.0967 -1.058333,-0.54053 0,-0.772773 6.162011,-6.325544 8.085736,-7.286296 2.235511,-1.11647 5.782123,-1.920799 7.4572,-1.691204 4.00154,0.548472 8.287035,3.41276 10.183879,6.806581 0.937425,1.677239 1.640155,5.416109 1.017972,5.416109 -0.633339,0 -1.873818,-1.62818 -1.898752,-2.49218 -0.01362,-0.47256 -0.168642,-1.17671 -0.344456,-1.564761 -0.227888,-0.502994 -0.260135,-0.325752 -0.112332,0.617361 0.114032,0.7276 0.09985,1.32292 -0.0315,1.32292 -0.73945,0 -1.650841,-0.90866 -2.602226,-2.594423 -1.718356,-3.04474 -4.947599,-5.166691 -7.86282,-5.166691 -1.23747,0 -1.601237,0.556489 -0.68448,1.047122 0.998805,0.534546 2.490392,3.22678 2.490392,4.495034 0,0.978588 -0.128665,1.095378 -1.499306,1.361008 l -1.499305,0.29057 1.322916,0.12859 c 1.560823,0.15172 1.631026,0.4974 0.422738,2.08155 -1.174913,1.54039 -2.635988,2.28825 -5.449821,2.78953 -1.982476,0.35316 -2.161656,0.44421 -1.322916,0.67218 0.533576,0.14502 0.970139,0.41656 0.970139,0.60341 0,0.62569 -0.999712,1.34802 -1.565289,1.13099 -0.386676,-0.14838 -0.499844,-0.0595 -0.366547,0.28786 0.106056,0.27638 -0.09607,0.76396 -0.449171,1.08351 -0.60882,0.55097 -0.729004,0.43581 -2.325567,-2.22833 z m 2.523405,-8.697851 c 0.06585,-0.460473 0.419312,-0.828587 0.881944,-0.918495 0.547335,-0.106366 0.446734,-0.164021 -0.345616,-0.198082 -1.507077,-0.06478 -2.233714,0.257024 -2.233714,0.989239 0,1.322019 1.510347,1.435319 1.697386,0.127338 z m 14.372518,10.950651 c -1.864807,-0.57224 -4.094807,-1.96694 -5.414327,-3.38626 l -0.809699,-0.87094 0.809699,-1.26827 c 0.445336,-0.69755 0.979467,-1.27499 1.186956,-1.2832 0.207494,-0.008 1.239369,0.63007 2.293056,1.4184 2.44446,1.82886 3.807463,2.65419 4.914409,2.97577 0.637434,0.18519 0.47564,-0.0237 -0.583593,-0.75352 -0.806044,-0.55536 -2.512607,-2.14463 -3.792361,-3.53171 -1.892504,-2.05122 -2.32827,-2.74263 -2.33457,-3.704168 -0.0043,-0.650212 -0.324584,-1.880528 -0.711825,-2.734038 -0.387244,-0.853507 -0.648955,-1.606952 -0.581589,-1.674322 0.06737,-0.06737 0.896447,0.427771 1.842392,1.100317 1.081342,0.768801 2.394825,2.243818 3.537737,3.972791 1.002979,1.5173 2.433344,3.17068 3.190959,3.68849 1.948268,1.33158 4.719302,2.14211 6.824779,1.99625 0.979402,-0.0678 1.780631,-0.034 1.780511,0.0752 -3.07e-4,0.2773 -1.731433,1.83816 -2.998829,2.70387 -1.348084,0.92083 -4.519083,1.8673 -6.149446,1.83548 -0.69239,-0.0135 -2.044304,-0.26559 -3.004259,-0.56016 z m 7.906963,-4.93544 c -0.45303,-0.12278 -0.518043,-0.72284 -0.399115,-3.68379 0.184348,-4.589791 -0.337823,-7.169627 -2.257389,-11.152786 -1.452524,-3.014032 -1.56481,-3.450698 -1.56481,-6.0854171 v -2.838391 h 4.409722 4.409722 V 17.291149 c 0,12.022793 -0.04713,12.417773 -1.481666,12.417773 -0.555375,0 -0.642437,-0.36494 -0.694302,-2.91041 -0.03263,-1.60073 -0.112042,-2.27542 -0.176502,-1.49931 -0.372907,4.49001 -0.466083,4.66349 -2.24566,4.18122 z m 2.009546,-7.620801 c -0.09786,-0.242535 -0.177938,-0.0441 -0.177938,0.440972 0,0.48507 0.08007,0.683507 0.177938,0.440972 0.09786,-0.242534 0.09786,-0.639409 0,-0.881944 z"
       style="fill:#ffffff;stroke-width:0.352778" />
  </g>
</svg>
