<svg xmlns="http://www.w3.org/2000/svg" xmlns:xlink="http://www.w3.org/1999/xlink" viewBox="0 0 495.16 382.7"><defs><style>.cls-1{fill:url(#linear-gradient);}.cls-2{fill:url(#linear-gradient-2);}.cls-3{fill:url(#Nueva_muestra_de_degradado_26);}.cls-4{fill:url(#linear-gradient-3);}.cls-5{fill:url(#linear-gradient-4);}.cls-6{fill:url(#linear-gradient-5);}.cls-7{fill:url(#linear-gradient-6);}.cls-8{fill:url(#Nueva_muestra_de_degradado_26-2);}.cls-9{fill:url(#linear-gradient-7);}.cls-10{fill:url(#linear-gradient-8);}.cls-11{fill:url(#Nueva_muestra_de_degradado_26-3);}.cls-12{fill:url(#linear-gradient-9);}.cls-13{fill:url(#linear-gradient-10);}.cls-14{fill:url(#linear-gradient-11);}.cls-15{fill:url(#linear-gradient-12);}.cls-16{fill:url(#linear-gradient-13);}.cls-17{fill:url(#Degradado_sin_nombre_854);}.cls-18{fill:url(#linear-gradient-14);}.cls-19{fill:url(#linear-gradient-15);}.cls-20{fill:url(#linear-gradient-16);}.cls-21{fill:url(#linear-gradient-17);}.cls-22{fill:url(#linear-gradient-18);}</style><linearGradient id="linear-gradient" x1="260.48" y1="355.91" x2="585.39" y2="355.91" gradientUnits="userSpaceOnUse"><stop offset="0" stop-color="#efeded"/><stop offset="0.19" stop-color="#666669"/><stop offset="0.46" stop-color="#848789"/><stop offset="0.73" stop-color="#504e53"/><stop offset="0.93" stop-color="#57565a"/></linearGradient><linearGradient id="linear-gradient-2" x1="60.54" y1="289.76" x2="178" y2="239.5" gradientUnits="userSpaceOnUse"><stop offset="0.23" stop-color="#4e4d52"/><stop offset="0.26" stop-color="#59585d"/><stop offset="0.32" stop-color="#78777b"/><stop offset="0.4" stop-color="#a9a8aa"/><stop offset="0.5" stop-color="#edecec"/><stop offset="0.52" stop-color="#f9f8f8"/><stop offset="0.53" stop-color="#efeeee"/><stop offset="0.58" stop-color="#d6d6d6"/><stop offset="0.63" stop-color="#c4c5c5"/><stop offset="0.68" stop-color="#b9baba"/><stop offset="0.74" stop-color="#b6b7b7"/><stop offset="0.79" stop-color="#a2a3a4"/><stop offset="0.89" stop-color="#707073"/><stop offset="0.94" stop-color="#57575b"/></linearGradient><linearGradient id="Nueva_muestra_de_degradado_26" x1="8.53" y1="259.47" x2="132.49" y2="259.47" gradientUnits="userSpaceOnUse"><stop offset="0.01" stop-color="#8c9096"/><stop offset="0.26" stop-color="#979c9c"/><stop offset="0.47" stop-color="#fff"/><stop offset="0.56" stop-color="#d3d5d5"/><stop offset="0.69" stop-color="#979c9c"/><stop offset="1" stop-color="#2d292f"/></linearGradient><linearGradient id="linear-gradient-3" x1="160.12" y1="106.8" x2="18.69" y2="303.46" gradientUnits="userSpaceOnUse"><stop offset="0" stop-color="#eeecec"/><stop offset="0.2" stop-color="#727074"/><stop offset="0.3" stop-color="#38363c"/><stop offset="0.36" stop-color="#3e3c42"/><stop offset="0.44" stop-color="#4f4d52"/><stop offset="0.53" stop-color="#6c6a6e"/><stop offset="0.63" stop-color="#949293"/><stop offset="0.74" stop-color="#c6c4c3"/><stop offset="0.76" stop-color="#d0cecd"/><stop offset="0.81" stop-color="#a9a8a8"/><stop offset="0.86" stop-color="#878688"/><stop offset="0.91" stop-color="#6e6e70"/><stop offset="0.96" stop-color="#5f5f62"/><stop offset="1" stop-color="#5a5a5d"/></linearGradient><linearGradient id="linear-gradient-4" x1="71.94" y1="257.93" x2="356.69" y2="75.37" gradientUnits="userSpaceOnUse"><stop offset="0" stop-color="#4c4a4f"/><stop offset="0.03" stop-color="#514f54"/><stop offset="0.06" stop-color="#615f63"/><stop offset="0.1" stop-color="#7b797c"/><stop offset="0.15" stop-color="#9f9d9e"/><stop offset="0.19" stop-color="#cccac9"/><stop offset="0.19" stop-color="#d0cecd"/><stop offset="0.21" stop-color="#c5c4c3"/><stop offset="0.29" stop-color="#949394"/><stop offset="0.35" stop-color="#757577"/><stop offset="0.39" stop-color="#6a6a6c"/><stop offset="0.59" stop-color="#f1efee"/><stop offset="0.83" stop-color="#4c4a4f"/></linearGradient><linearGradient id="linear-gradient-5" x1="271.21" y1="292.33" x2="405.09" y2="209.83" xlink:href="#linear-gradient-4"/><linearGradient id="linear-gradient-6" x1="252.09" y1="222.81" x2="481" y2="98.4" xlink:href="#linear-gradient-4"/><linearGradient id="Nueva_muestra_de_degradado_26-2" x1="183.99" y1="269.63" x2="402.71" y2="213.85" xlink:href="#Nueva_muestra_de_degradado_26"/><linearGradient id="linear-gradient-7" x1="333.16" y1="201.48" x2="164.8" y2="282.36" xlink:href="#linear-gradient"/><linearGradient id="linear-gradient-8" x1="384.93" y1="249.64" x2="641.56" y2="119.31" xlink:href="#linear-gradient-4"/><linearGradient id="Nueva_muestra_de_degradado_26-3" x1="21.93" y1="216.43" x2="184.16" y2="216.43" xlink:href="#Nueva_muestra_de_degradado_26"/><linearGradient id="linear-gradient-9" x1="111.48" y1="130.02" x2="242.37" y2="70.66" xlink:href="#linear-gradient"/><linearGradient id="linear-gradient-10" x1="149.77" y1="128.78" x2="15.77" y2="10.94" gradientUnits="userSpaceOnUse"><stop offset="0.01" stop-color="#969b9d"/><stop offset="0.08" stop-color="#888c8e"/><stop offset="0.21" stop-color="#636368"/><stop offset="0.31" stop-color="#444248"/><stop offset="0.43" stop-color="#46444a"/><stop offset="0.47" stop-color="#4d4b50"/><stop offset="0.5" stop-color="#58565b"/><stop offset="0.52" stop-color="#69676b"/><stop offset="0.54" stop-color="#7f7d80"/><stop offset="0.56" stop-color="#9a999a"/><stop offset="0.58" stop-color="#b9b8b8"/><stop offset="0.58" stop-color="#c7c6c5"/><stop offset="0.67" stop-color="#c4c3c2"/><stop offset="0.74" stop-color="#bab9b9"/><stop offset="0.8" stop-color="#a9a8a9"/><stop offset="0.86" stop-color="#929092"/><stop offset="0.92" stop-color="#747275"/><stop offset="0.98" stop-color="#4f4d52"/><stop offset="1" stop-color="#3d3b41"/></linearGradient><linearGradient id="linear-gradient-11" x1="105.32" y1="51.47" x2="12.11" y2="152.57" xlink:href="#linear-gradient"/><linearGradient id="linear-gradient-12" x1="79.9" y1="28.13" x2="37.63" y2="69.07" xlink:href="#linear-gradient"/><linearGradient id="linear-gradient-13" x1="22.58" y1="74.6" x2="115.53" y2="-3.3" xlink:href="#linear-gradient"/><linearGradient id="Degradado_sin_nombre_854" x1="158.7" y1="35.97" x2="74.98" y2="92.65" gradientUnits="userSpaceOnUse"><stop offset="0.01" stop-color="#8c9096"/><stop offset="0.26" stop-color="#979c9c"/><stop offset="0.47" stop-color="#fff"/><stop offset="0.49" stop-color="#f2f1f1"/><stop offset="0.56" stop-color="#d3d4d4"/><stop offset="0.69" stop-color="#979c9c"/><stop offset="1" stop-color="#2d292f"/></linearGradient><linearGradient id="linear-gradient-14" x1="105.75" y1="42.9" x2="177.48" y2="147.13" xlink:href="#linear-gradient-4"/><linearGradient id="linear-gradient-15" x1="129.19" y1="49.22" x2="225.05" y2="16.05" xlink:href="#linear-gradient"/><linearGradient id="linear-gradient-16" x1="206.92" y1="-15.52" x2="110.34" y2="36.67" xlink:href="#linear-gradient"/><linearGradient id="linear-gradient-17" x1="472.96" y1="57.33" x2="200.23" y2="645.38" xlink:href="#linear-gradient"/><linearGradient id="linear-gradient-18" x1="-388.79" y1="1271.82" x2="-480.26" y2="1371.03" gradientTransform="matrix(0.85, -0.64, 0.6, 0.8, -379.77, -1199.61)" xlink:href="#linear-gradient"/></defs><g id="Layer_2" data-name="Layer 2"><g id="Capa_1" data-name="Capa 1"><path class="cls-1" d="M307.75,379.58h24.78l-.74,2.3H301v-.29l16.32-15.66q7.28-7.05,10.35-12.24a19,19,0,0,0,3.08-9.58,12.53,12.53,0,0,0-1.7-6.45,12.25,12.25,0,0,0-4.72-4.56,13.64,13.64,0,0,0-6.79-1.67,13.8,13.8,0,0,0-6.71,1.63,11.77,11.77,0,0,0-4.67,4.53,12.71,12.71,0,0,0-1.67,6.52,11.9,11.9,0,0,0,1.44,5.87,9.69,9.69,0,0,0,4,3.93,10.73,10.73,0,0,0,5.64,1.19l.08.14-1.34,1.93a11.26,11.26,0,0,1-6.16-1.74,12.37,12.37,0,0,1-4.34-4.75,14.11,14.11,0,0,1-1.59-6.71,14.62,14.62,0,0,1,2-7.57,14,14,0,0,1,5.56-5.34,16.37,16.37,0,0,1,7.94-1.93,16.17,16.17,0,0,1,7.91,1.93,14.1,14.1,0,0,1,5.52,5.34,14.63,14.63,0,0,1,2,7.57,21,21,0,0,1-3.05,10.24,56.9,56.9,0,0,1-9.94,12.16l-13.5,13.21Zm45.82-.37A25.44,25.44,0,0,1,344,369.6a28.51,28.51,0,0,1,0-27.3,25.59,25.59,0,0,1,9.61-9.65,28.1,28.1,0,0,1,27.16,0,25.42,25.42,0,0,1,9.53,9.61,28.46,28.46,0,0,1,0,27.31,25.35,25.35,0,0,1-9.61,9.64,28,28,0,0,1-27.15,0Zm26.08-2a22.62,22.62,0,0,0,8.61-8.72,26.53,26.53,0,0,0,0-25,23.11,23.11,0,0,0-8.68-8.76,25.88,25.88,0,0,0-24.82,0,22.68,22.68,0,0,0-8.61,8.72,26.47,26.47,0,0,0,0,25,22.94,22.94,0,0,0,8.68,8.75,25.88,25.88,0,0,0,24.82,0ZM408,379.58h24.79l-.75,2.3H401.24v-.29l16.32-15.66q7.28-7.05,10.36-12.24a19.11,19.11,0,0,0,3.07-9.58,12.53,12.53,0,0,0-1.7-6.45,12.29,12.29,0,0,0-4.71-4.56,13.69,13.69,0,0,0-6.79-1.67,13.83,13.83,0,0,0-6.72,1.63,11.77,11.77,0,0,0-4.67,4.53,12.71,12.71,0,0,0-1.67,6.52,11.9,11.9,0,0,0,1.44,5.87,9.69,9.69,0,0,0,4,3.93,10.77,10.77,0,0,0,5.64,1.19l.08.14-1.34,1.93a11.28,11.28,0,0,1-6.16-1.74,12.45,12.45,0,0,1-4.34-4.75,14.11,14.11,0,0,1-1.59-6.71,14.72,14.72,0,0,1,2-7.57,14,14,0,0,1,5.57-5.34,16.34,16.34,0,0,1,7.94-1.93,16.16,16.16,0,0,1,7.9,1.93,14.13,14.13,0,0,1,5.53,5.34,14.72,14.72,0,0,1,2,7.57,21.12,21.12,0,0,1-3,10.24,57.3,57.3,0,0,1-9.95,12.16l-13.5,13.21Zm45.82-.37a25.35,25.35,0,0,1-9.53-9.61,28.44,28.44,0,0,1,0-27.3,25.49,25.49,0,0,1,9.6-9.65,28.1,28.1,0,0,1,27.16,0,25.51,25.51,0,0,1,9.54,9.61,28.53,28.53,0,0,1,0,27.31,25.49,25.49,0,0,1-9.61,9.64,28,28,0,0,1-27.16,0Zm26.08-2a22.62,22.62,0,0,0,8.61-8.72,26.53,26.53,0,0,0,0-25,23.11,23.11,0,0,0-8.68-8.76,25.88,25.88,0,0,0-24.82,0,22.68,22.68,0,0,0-8.61,8.72,26.55,26.55,0,0,0,0,25,23,23,0,0,0,8.68,8.75,25.88,25.88,0,0,0,24.82,0Z"/><path class="cls-2" d="M151.91,278.89c-1.41.81-2.84,1.59-4.3,2.31h0a79.93,79.93,0,0,1-7.82,3.4,82,82,0,0,1-87.86-20A83.21,83.21,0,0,0,135,249.43l13.89,24.23,1.8,3.14Z"/><path class="cls-3" d="M135,249.43a83.21,83.21,0,0,1-83.09,15.15,79.94,79.94,0,0,1-7.66-9.26,85.43,85.43,0,0,0,90.65-6.06Z"/><path class="cls-4" d="M134.92,249.26a85.43,85.43,0,0,1-90.65,6.06,81.85,81.85,0,0,1,6.4-102.74,83.95,83.95,0,0,1,82.42,13,47.71,47.71,0,1,0,1.82,83.65Z"/><path class="cls-5" d="M232.62,255.42l-19.71,34.37v0l-19.7-34.35L185.53,242,165.7,207.44l-3.3-5.76-8.65-15.1,0-.08a50.43,50.43,0,0,0-2.56-4.46h0c-.42-.65-.85-1.29-1.3-1.92a0,0,0,0,1,0,0,83.25,83.25,0,0,0-93-33.55A81.56,81.56,0,0,1,111.05,126a79.46,79.46,0,0,1,8.21.41,81.37,81.37,0,0,1,42.8,17.42,82.28,82.28,0,0,1,18.28,20.38l0,.05,3.45,6,.07.12,29,50.64,19.7,34.35Z"/><path class="cls-6" d="M396.72,207.91a81.9,81.9,0,0,1-81.91,81.89h-.68A81.31,81.31,0,0,1,279.94,282V248.3a82.69,82.69,0,0,0,33.64,7.3h2.24l1.45,0,.26,0a83.12,83.12,0,0,0,76.84-61.39c.25-.9.48-1.8.69-2.72,0,.13.05.26.07.39A81.32,81.32,0,0,1,396.72,207.91Z"/><path class="cls-7" d="M395.06,191.42c-.21.92-.44,1.82-.69,2.72a85.1,85.1,0,0,1-51.27,52.19,47.71,47.71,0,1,0-61.41-72.76c-.59.58-1.18,1.18-1.75,1.79a46.75,46.75,0,0,0-5.66,7.38l0,.08c-.58.93-1.12,1.87-1.63,2.84l0,.05L251,223.33l-1.12,1.94L240.31,242l-7.69,13.44L212.91,221l19-33.15.36-.63,10.29-18,.06-.08,2.15-3.78,0-.09a81.9,81.9,0,0,1,61.74-38.93,80.38,80.38,0,0,1,8.25-.41A81.93,81.93,0,0,1,395.06,191.42Z"/><path class="cls-8" d="M394.37,194.14a83.12,83.12,0,0,1-76.84,61.39l-.26,0-1.45,0h-2.24a82.69,82.69,0,0,1-33.64-7.3v-4a84.51,84.51,0,0,0,34.15,7.15h0a84.79,84.79,0,0,0,80.24-57.28Z"/><path class="cls-9" d="M314.13,173.57v77.85h0a84.51,84.51,0,0,1-34.15-7.15V205.92A34.27,34.27,0,0,1,314.13,173.57Z"/><path class="cls-10" d="M495.16,289.8H429.88a16.32,16.32,0,0,1-3.24-.38,17.11,17.11,0,0,1-13.41-16.26V158a34.25,34.25,0,0,1,32-32h2.2v129.6H463.1A34.27,34.27,0,0,1,495.16,289.8Z"/><path class="cls-11" d="M212.9,289.77l-58.41-98.38c-.75-1.43-1.56-2.83-2.4-4.2l-1.44-2.51-.12.06a84.58,84.58,0,0,0-17.44-19.16,83.95,83.95,0,0,0-82.42-13,79.44,79.44,0,0,1,6.14-6,83.25,83.25,0,0,1,93,33.55,0,0,0,0,0,0,0c.45.63.88,1.27,1.3,1.92h0a50.43,50.43,0,0,1,2.56,4.46l0,.08,8.65,15.1,3.3,5.76L185.53,242l7.67,13.4Z"/><path class="cls-12" d="M154.85,112.63c0-3.12,1.69-7.91,3.36-11.24a23.65,23.65,0,0,0-2.63-.26c-5.47,6-13.17,15.16-17.91,15.16-2.16,0-5.92-2.27-5.92-5.35,0-5.77,11.8-10.55,21.18-10.55.55,0,1.13,0,1.67,0,2.69-2.57,5.64-5.56,7.26-7.35,1-1.16,1.88-2.18,1.9-2.69a.47.47,0,0,0-.25-.45.14.14,0,0,1,.13,0,2.83,2.83,0,0,1,1.71,1c.55.55,1.21,1.43,1,1.79a44.79,44.79,0,0,0-5.26,8.64,15.57,15.57,0,0,1,4.64,2c.06,0,0,.25-.15.17a18.92,18.92,0,0,0-4.7-1.73c-2.59,5.68-3.53,9.31-3.53,11.49,0,.82.07,2,1.18,2a6,6,0,0,0,2.67-1c.17-.13.21,0,.08.17-.38.52-1.47,1.67-2.26,1.67A4.07,4.07,0,0,1,154.85,112.63Zm-19.3,2c3.25,0,11.69-6.56,18.36-13.53-11.09.36-20.36,7-20.36,11.39A1.94,1.94,0,0,0,135.55,114.62Zm20.56-14.11c.75.07,1.65.2,2.4.33,1.51-3.06,3.52-6.57,5.13-9.19A95.39,95.39,0,0,1,156.11,100.51Zm15.61,5.15a14,14,0,0,0-2.18,3.6c0,.06,0,.1.1.1.47,0,3.94-2.9,6.82-5.68.15-.15.38,0,.28.17-.47.6-1.6,1.92-2.89,3.25s-3.91,3.84-4.59,3.84c-1,0-2.4-1.41-2.33-2.22a.78.78,0,0,1,0-.21,27.08,27.08,0,0,1,2.78-4.32c1-1.39,2.63-3.35,2.63-3.42a0,0,0,0,0,0,0,20.53,20.53,0,0,0-4.62,3.59c-2.05,1.94-5.62,5.51-5.43,6.17,0,.05,0,.09.09.09s0,.21-.28.17c-.49-.08-1.75-1.45-1.63-2,.3-1.18,3.19-4.79,4.88-7.38.53-.83.83-1.64.45-1.84a1.6,1.6,0,0,1,1.13.35,2.39,2.39,0,0,1,1.17,1.62c0,.43-2.33,3.25-4,5.64.94-1.13,2.15-2.37,3.24-3.44.9-.87,4.32-4.27,5.26-4.27a2.27,2.27,0,0,1,1.26.62c.88.7,1.09,1.34,1.07,1.6a.33.33,0,0,1,0,.13C173.81,103.06,173.06,103.81,171.72,105.66Zm-2.1-8.93a2.45,2.45,0,0,0-1.6.71s-.19,0-.17,0c.15-.74,1.54-2.41,2.88-2.41.81,0,1.73,1.41,2.65,1.41A3.33,3.33,0,0,0,176,94.81c0-.07.19-.09.17.06a4.91,4.91,0,0,1-3.74,3.21C171.44,98.08,170.43,96.73,169.62,96.73Zm11.07,4a5,5,0,0,1,2.89-1.31,3.29,3.29,0,0,1,3.29,2.85,20.44,20.44,0,0,0,3.33,0c.26,0,.54.15-.13.37a14.75,14.75,0,0,1-3.31.4c-.15,2.31-5.08,8-8.78,8-2.14,0-4-1-4-2.84C173.94,105.49,177.91,101.5,180.69,100.71ZM176.52,110c1.89,0,6.44-4,8-7a6.93,6.93,0,0,1-2.42-.6c-3.22,1.07-6.11,5.43-6.11,6.93C176,109.66,176,110,176.52,110Zm7.59-9.85a1.42,1.42,0,0,0-1.17,1c-.09.54.72.84,2,1a2.34,2.34,0,0,0,.19-1C185.09,100.39,184.8,100,184.11,100.11ZM191.7,105a35.64,35.64,0,0,1,7.31-1.71c.17,0,.13.21,0,.26a52.23,52.23,0,0,0-6.11,1.94c1,.43,1.86,1.16,1.86,1.78s-.11.94-1.07,1.73a12.44,12.44,0,0,1-6.43,2.33c-1.39,0-2.72-1.54-2.53-2.29.28-1.07,3.25-2.82,6.2-3.76-1.22-.43-2.56-.94-2.56-1.93,0-1.77,4.33-4.08,6.77-4.08a2.56,2.56,0,0,1,2.44,2c0,1-2.1,1.86-2.72,1.86-.12,0-.25-.07-.19-.13.39-.39,1.95-1.73,1.95-2.14,0-.08,0-.11-.22-.11a9,9,0,0,0-3.78,1.35c-1.56.92-2.42,2-2.16,2.27A4.55,4.55,0,0,0,191.7,105Zm1,1.15c0-.19,0-.25-.42-.38-.75.32-1.5.66-2.31,1.09-2.59,1.35-4.25,2.86-4.25,3.12.42.23,4.1-1.52,5.19-2.16C191.29,107.57,192.7,106.75,192.7,106.11Z"/><path class="cls-13" d="M117.29,31.16a13.52,13.52,0,0,1-1.66,6.42c-.16.39-.35.78-.56,1.18a39.81,39.81,0,0,1-4.94,7.08C97.63,60.62,69.94,80.37,52,91.24q2.91,0,6.2.28c-2.33-.18-4.69-.26-7.06-.26a94.51,94.51,0,0,0-13,.89q-2.71.38-5.37.9c-.39.08-.77.15-1.15.24q-3.15.66-6.24,1.54A109.36,109.36,0,0,0,57.18,78.36l.08-.07c1.45-1.08,2.86-2.19,4.25-3.34A352.41,352.41,0,0,0,90.6,49.26c1.16-1.17,2.29-2.34,3.38-3.49a108.07,108.07,0,0,0,7.13-8.33c3.81-5,6.12-9.38,6.12-12.64a5.91,5.91,0,0,0-.06-.95,5.18,5.18,0,0,0-.33-1.37,13,13,0,0,0-3-5.16.38.38,0,0,0-.09-.09,12.67,12.67,0,0,0-2.33-1.92l0,0-.3-.2a17.06,17.06,0,0,0-2.82-1.45C109.21,15.69,117.29,22.76,117.29,31.16Z"/><path class="cls-14" d="M103.72,107.34l-.09,0a105.32,105.32,0,0,0-17.28-5.91,78.05,78.05,0,0,0-20.7-2.78l-1.52,0a77.75,77.75,0,0,0-47.88,17.61,14.24,14.24,0,0,1-6.38-9.42.44.44,0,0,1,0-.1,13.36,13.36,0,0,1-.22-2.29v-.24a14.25,14.25,0,0,1,.44-3.54c.62-.31,1.25-.6,1.88-.89a93.22,93.22,0,0,1,10.13-4c1.08-.35,2.18-.69,3.28-1q3.09-.89,6.24-1.54c.38-.09.76-.16,1.15-.24q2.66-.52,5.37-.9a94.51,94.51,0,0,1,13-.89c2.37,0,4.73.08,7.06.26.76.06,1.53.14,2.32.23a115.85,115.85,0,0,1,17.18,3.31A93.45,93.45,0,0,1,103.72,107.34Z"/><path class="cls-15" d="M76.56,42.88a18,18,0,0,1-1,2.37c-3.88,8-15.51,22.11-23.81,22.11l-.66,0h0a6.38,6.38,0,0,1-1.25-.13,17.81,17.81,0,0,1-10.12-5.5A9.79,9.79,0,0,1,37,55.27a11.68,11.68,0,0,1,.52-3.21C36.43,59.91,42,62.15,45.63,62.78h0A8.92,8.92,0,0,0,51.06,62a45.37,45.37,0,0,0,5.54-3.18A125.62,125.62,0,0,0,70.38,47.6c1.17-1.06,2.36-2.19,3.58-3.36.59-.57,1.2-1.16,1.8-1.76C76.16,42.08,76.76,42.18,76.56,42.88Z"/><path class="cls-16" d="M106.84,22.48c-.9-2.31-3.46-3.78-8.9-3.78h-.41c-5.09.09-10.52,1.84-15.88,4.61A68.12,68.12,0,0,0,75.45,27c-1.87,1.23-3.71,2.55-5.49,3.94q-1.84,1.43-3.61,2.93c-10.63,9-19,19.81-20.87,25.37a5.94,5.94,0,0,0-.29,1c0,.08,0,.16,0,.24h0a4.39,4.39,0,0,0-.06.69v.14h0a.41.41,0,0,0,0,.11,1.89,1.89,0,0,0,.53,1.36c-3.67-.63-9.2-2.87-8.11-10.72h0C40,43.73,50.69,30.83,63.83,22.27a59.22,59.22,0,0,1,14.63-7.08,47,47,0,0,1,7.87-1.76,36,36,0,0,1,5.35-.4,35.15,35.15,0,0,1,6.58.61,17.06,17.06,0,0,1,2.82,1.45h0l.34.21,0,0a17.1,17.1,0,0,1,2.33,1.92.38.38,0,0,1,.09.09A13,13,0,0,1,106.84,22.48Z"/><path class="cls-17" d="M142,47.75a200.47,200.47,0,0,0-22.72,8A111.05,111.05,0,0,0,99.46,66.33a45.55,45.55,0,0,0-6.17,5.11,13.66,13.66,0,0,0,1.88,17.3,4.33,4.33,0,0,1-.4-2.23c.35-5.29,7.59-12.31,17-19.23,2.19-1.61,4.5-3.21,6.87-4.78C126.51,57.3,135,52.41,142,48.65,142.52,48.35,142.52,47.65,142,47.75Z"/><path class="cls-18" d="M168.4,69.83c-1.2,16.58-33.67,30.67-49.05,30.67-17.19,0-32.67-8.69-31.67-18.88.34-3.54,2.41-7,5.61-10.18a13.66,13.66,0,0,0,9.65,21.06c.24,0,.47.06.71.07,1,.09,2,.13,3.11.13,9.22,0,23.85-5.14,35.24-11.9,8.85-5.25,15.74-11.47,16.61-17a2,2,0,0,0,0-.26v0a1.64,1.64,0,0,0,0-.22,20.14,20.14,0,0,0,.14-2.34,19.94,19.94,0,0,0-3.33-11.07C163.15,56.38,168.82,63.15,168.4,69.83Z"/><path class="cls-19" d="M158.68,63.3c0-.22,0-.45,0-.67,0-2.75-2.58-6.47-6.77-10.54a105.83,105.83,0,0,0-14.2-11.21c-1.69-1.14-3.45-2.27-5.24-3.38l-1-.6-.09-.06a9,9,0,0,1-3.81-7.39v-.2a9.2,9.2,0,0,1,.13-1.38,7.4,7.4,0,0,1,1.14-2.82v.19A10,10,0,0,0,132.62,33l0,0c.26.21.52.39.79.57,2,1.43,4.09,2.9,6.22,4.4l.58.4,4.9,3.48c3.5,2.53,7,5.13,10.11,7.78l.25.21A19.94,19.94,0,0,1,158.82,61,20.14,20.14,0,0,1,158.68,63.3Z"/><path class="cls-20" d="M183.09,3.39c-.3,5.49-3.2,12.09-4.5,12.69q-6.28.26-12.57.56c-3.3.17-6.59.34-9.88.54l-2.07.13c-1,.06-1.94.16-2.92.24-1.84.15-3.68.21-5.53.31l-1.25.08c-4.28.3-8.44,1.17-12,3.66a14.78,14.78,0,0,0-1.53,1.21,12,12,0,0,0-2,2.24,7.4,7.4,0,0,0-1.14,2.82,9.2,9.2,0,0,0-.13,1.38v.2a9,9,0,0,0,3.81,7.39L130.07,36a14.48,14.48,0,0,1-3.93-19.91c.45-.6.91-1.2,1.37-1.78h0a47,47,0,0,1,6.11-6.54c2,.79,5.6,1.09,9.09,1.09,9.9,0,24.08-2.49,31.57-4.19,4.5-.9,7.8-2.4,8-4.3V0C182.36,0,183.27.37,183.09,3.39Z"/><path class="cls-21" d="M222.45,315.43l.36,1.22a7.81,7.81,0,0,1-1.76.78,7.59,7.59,0,0,1-2.32.34,6.4,6.4,0,0,1-2.59-.49,5.17,5.17,0,0,1-1.82-1.34,5.41,5.41,0,0,1-1.07-1.94,7.79,7.79,0,0,1-.34-2.34,7.37,7.37,0,0,1,.38-2.43,5.58,5.58,0,0,1,1.14-2,5.4,5.4,0,0,1,1.88-1.34,6.45,6.45,0,0,1,2.62-.49,9.5,9.5,0,0,1,2,.21,7,7,0,0,1,1.69.57l-.38,1.32a5.34,5.34,0,0,0-1.44-.64,6.82,6.82,0,0,0-2-.26,5.17,5.17,0,0,0-2.06.36,3.38,3.38,0,0,0-1.36,1,3.89,3.89,0,0,0-.75,1.54,8.26,8.26,0,0,0-.23,2,5.66,5.66,0,0,0,1.1,3.78,4,4,0,0,0,3.26,1.27,6.83,6.83,0,0,0,2.12-.32A5,5,0,0,0,222.45,315.43Zm13.28-6.22a7.43,7.43,0,0,1,0,4.66,5.85,5.85,0,0,1-1.13,2,5.62,5.62,0,0,1-1.88,1.39,6.84,6.84,0,0,1-5.16,0,5.1,5.1,0,0,1-1.78-1.34,5.56,5.56,0,0,1-1.07-1.94,7.43,7.43,0,0,1-.36-2.33,7.2,7.2,0,0,1,.4-2.43,5.85,5.85,0,0,1,1.14-2,5.34,5.34,0,0,1,1.84-1.34,6.65,6.65,0,0,1,5,0,5.47,5.47,0,0,1,1.85,1.34A5.88,5.88,0,0,1,235.73,309.21Zm-1.11,2.39a7.05,7.05,0,0,0-.27-2,4.4,4.4,0,0,0-.8-1.57,3.56,3.56,0,0,0-1.38-1,4.84,4.84,0,0,0-2-.37,5,5,0,0,0-2,.36,3.35,3.35,0,0,0-1.33,1,4.26,4.26,0,0,0-.75,1.54,8.07,8.07,0,0,0-.23,2,5.71,5.71,0,0,0,1.09,3.8,4,4,0,0,0,3.18,1.27,4.84,4.84,0,0,0,2-.38,3.61,3.61,0,0,0,1.39-1.06,4.35,4.35,0,0,0,.79-1.58A7.11,7.11,0,0,0,234.62,311.6Zm12.18,3.78-6.2-9.87h-1.66v12h1.37V307.7l6.2,9.85h1.66v-12H246.8Zm12.88.6a7.51,7.51,0,0,1-1.29.42,6.51,6.51,0,0,1-1.5.16,4.07,4.07,0,0,1-3.27-1.27,5.66,5.66,0,0,1-1.09-3.78,8.26,8.26,0,0,1,.23-2,3.89,3.89,0,0,1,.75-1.54,3.42,3.42,0,0,1,1.35-1,5.26,5.26,0,0,1,2.07-.36,7.82,7.82,0,0,1,2.07.26,5.24,5.24,0,0,1,1.5.64l.38-1.32a8.27,8.27,0,0,0-1.78-.57,10.07,10.07,0,0,0-2.06-.21,6.45,6.45,0,0,0-2.62.49,5.4,5.4,0,0,0-1.88,1.34,5.58,5.58,0,0,0-1.14,2,7.37,7.37,0,0,0-.38,2.43,7.79,7.79,0,0,0,.34,2.34,5.41,5.41,0,0,0,1.07,1.94,5.13,5.13,0,0,0,1.81,1.34,6.45,6.45,0,0,0,2.6.49,7.78,7.78,0,0,0,2.34-.34,7.5,7.5,0,0,0,1.87-.88v-4h-1.37Zm8.78-3.74,4.61,5.31h-1.7l-4.5-5.15c-.54,0-1,0-1.46,0v5.2H264v-12.1h2.72a6.64,6.64,0,0,1,1.79.23,4.06,4.06,0,0,1,1.37.66,2.93,2.93,0,0,1,.9,1.08,3.35,3.35,0,0,1,.32,1.48,3.43,3.43,0,0,1-.66,2.07A3.51,3.51,0,0,1,268.46,312.24Zm-1.56-1a2.93,2.93,0,0,0,2-.63,2.31,2.31,0,0,0,.68-1.82,2,2,0,0,0-.61-1.53,3.08,3.08,0,0,0-2.14-.58h-1.46v4.52a5.18,5.18,0,0,0,.7,0Zm9.36.6h4v-1.27h-4v-3.74h5.24v-1.28h-6.61v12h7v-1.28h-5.6Zm14.42,0a5.38,5.38,0,0,0-1.17-.69c-.44-.19-.88-.36-1.33-.51l-1.38-.48a5,5,0,0,1-.95-.45,1.56,1.56,0,0,1-.55-.53,1.58,1.58,0,0,1-.17-.76,1.51,1.51,0,0,1,.66-1.36,3.31,3.31,0,0,1,1.82-.43,7.43,7.43,0,0,1,.78.05,8.36,8.36,0,0,1,.85.14,4.4,4.4,0,0,1,.82.28,2.52,2.52,0,0,1,.69.43l.38-1.41a7.67,7.67,0,0,0-1.55-.49,8.45,8.45,0,0,0-1.9-.2,6.24,6.24,0,0,0-1.53.17,3.83,3.83,0,0,0-1.23.54,2.57,2.57,0,0,0-.82.94,3,3,0,0,0-.3,1.39,3,3,0,0,0,.24,1.26,2.78,2.78,0,0,0,.7.93,4.28,4.28,0,0,0,1.08.7,15.17,15.17,0,0,0,1.42.54l1.11.4a4.89,4.89,0,0,1,1,.52,2.79,2.79,0,0,1,.76.73,1.88,1.88,0,0,1,.29,1,2.1,2.1,0,0,1-.16.79,1.66,1.66,0,0,1-.53.63,3,3,0,0,1-1,.41,5.79,5.79,0,0,1-1.41.14,6.39,6.39,0,0,1-1.13-.09,6.55,6.55,0,0,1-.9-.23,4.1,4.1,0,0,1-.76-.36l-.69-.45-.38,1.33a8,8,0,0,0,4,1,7.34,7.34,0,0,0,1.63-.18,4.1,4.1,0,0,0,1.38-.6,3.09,3.09,0,0,0,1-1.06,3.28,3.28,0,0,0,.36-1.59,3.22,3.22,0,0,0-.31-1.49A2.85,2.85,0,0,0,290.68,311.83Zm14.37-2.62a7,7,0,0,1,.38,2.34,7.27,7.27,0,0,1-.37,2.32,5.85,5.85,0,0,1-1.13,2,5.62,5.62,0,0,1-1.88,1.39,6.28,6.28,0,0,1-2.62.52,6.14,6.14,0,0,1-2.53-.49,5.05,5.05,0,0,1-1.79-1.34A5.56,5.56,0,0,1,294,314a7.65,7.65,0,0,1,0-4.76,5.85,5.85,0,0,1,1.14-2,5.43,5.43,0,0,1,1.84-1.34,6,6,0,0,1,2.5-.49,6.06,6.06,0,0,1,2.52.49,5.43,5.43,0,0,1,1.84,1.34A5.88,5.88,0,0,1,305.05,309.21Zm-1.11,2.39a7.05,7.05,0,0,0-.27-2,4.24,4.24,0,0,0-.8-1.57,3.56,3.56,0,0,0-1.38-1,4.84,4.84,0,0,0-2-.37,4.9,4.9,0,0,0-2,.36,3.31,3.31,0,0,0-1.34,1,4.09,4.09,0,0,0-.74,1.54,7.6,7.6,0,0,0-.24,2,5.71,5.71,0,0,0,1.09,3.8,4,4,0,0,0,3.18,1.27,4.81,4.81,0,0,0,2-.38,3.61,3.61,0,0,0,1.39-1.06,4.35,4.35,0,0,0,.79-1.58A7.11,7.11,0,0,0,303.94,311.6ZM316.31,316l-4.58-10.51h-1.55l5.25,12h1.73l4.78-12h-1.46Zm8.92-4.22h4v-1.27h-4v-3.74h5.23v-1.28h-6.6v12h7v-1.28h-5.6Zm6.67-5h3.85v10.76h1.37V306.79H341v-1.28H331.9Zm12.57,5h4v-1.27h-4v-3.74h5.24v-1.28H343.1v12h7v-1.28h-5.6Zm12.57.44,4.62,5.31H360l-4.51-5.15c-.53,0-1,0-1.46,0v5.2h-1.36v-12.1h2.71a6.58,6.58,0,0,1,1.79.23,4,4,0,0,1,1.38.66,3,3,0,0,1,.89,1.08,3.22,3.22,0,0,1,.32,1.48,3.49,3.49,0,0,1-.65,2.07A3.54,3.54,0,0,1,357,312.24Zm-1.55-1a2.89,2.89,0,0,0,2-.63,2.32,2.32,0,0,0,.69-1.82,2,2,0,0,0-.61-1.53,3.09,3.09,0,0,0-2.15-.58H354v4.52a5.33,5.33,0,0,0,.71,0Zm8,6.35h1.37v-12h-1.37Zm12.84-2.17-6.2-9.87h-1.66v12h1.37V307.7l6.2,9.85h1.66v-12h-1.37Zm9.75-9.87,5.29,12h-1.55L388,313.5h-5.39l-1.6,4.05h-1.46l4.82-12Zm1.4,6.71L385.21,307l-2,5.18Zm10,0,4.62,5.31h-1.7l-4.51-5.15c-.53,0-1,0-1.46,0v5.2H393v-12.1h2.71a6.58,6.58,0,0,1,1.79.23,4,4,0,0,1,1.38.66,3,3,0,0,1,.89,1.08,3.22,3.22,0,0,1,.32,1.48,3.49,3.49,0,0,1-.65,2.07A3.54,3.54,0,0,1,397.43,312.24Zm-1.55-1a2.89,2.89,0,0,0,2-.63,2.32,2.32,0,0,0,.69-1.82,2,2,0,0,0-.61-1.53,3.11,3.11,0,0,0-2.15-.58h-1.46v4.52a5.33,5.33,0,0,0,.71,0Zm8,6.35h1.37v-12h-1.37Zm15.56-8.34a7,7,0,0,1,.38,2.34,7.27,7.27,0,0,1-.37,2.32,5.85,5.85,0,0,1-1.13,2,5.62,5.62,0,0,1-1.88,1.39,6.28,6.28,0,0,1-2.62.52,6.14,6.14,0,0,1-2.53-.49,5.05,5.05,0,0,1-1.79-1.34,5.56,5.56,0,0,1-1.07-1.94,7.85,7.85,0,0,1,0-4.76,5.85,5.85,0,0,1,1.14-2,5.43,5.43,0,0,1,1.84-1.34,6,6,0,0,1,2.5-.49,6.06,6.06,0,0,1,2.52.49,5.43,5.43,0,0,1,1.84,1.34A5.72,5.72,0,0,1,419.43,309.21Zm-1.11,2.39a7.05,7.05,0,0,0-.27-2,4.24,4.24,0,0,0-.8-1.57,3.56,3.56,0,0,0-1.38-1,4.84,4.84,0,0,0-2-.37,4.9,4.9,0,0,0-2,.36,3.38,3.38,0,0,0-1.34,1,4.09,4.09,0,0,0-.74,1.54,7.6,7.6,0,0,0-.24,2,5.71,5.71,0,0,0,1.09,3.8,4,4,0,0,0,3.18,1.27,4.81,4.81,0,0,0,2-.38,3.61,3.61,0,0,0,1.39-1.06,4.35,4.35,0,0,0,.79-1.58A7.11,7.11,0,0,0,418.32,311.6Zm18.35-2.66a8.25,8.25,0,0,1,.44,2.72,7.66,7.66,0,0,1-.35,2.32,5.45,5.45,0,0,1-1.07,1.93,5.06,5.06,0,0,1-1.81,1.31,6.24,6.24,0,0,1-2.59.49H429a10.42,10.42,0,0,1-1.85-.15V305.47h4a7.35,7.35,0,0,1,2.36.36,5.59,5.59,0,0,1,1.82,1A5.05,5.05,0,0,1,436.67,308.94Zm-1.08,2.59a8.19,8.19,0,0,0-.22-2,4.18,4.18,0,0,0-.75-1.54,3.55,3.55,0,0,0-1.36-1,5.44,5.44,0,0,0-2.06-.35h-2.72v9.8c.77.07,1.68.1,2.75.1a4.07,4.07,0,0,0,3.27-1.27A5.62,5.62,0,0,0,435.59,311.53Zm5.73.27h4v-1.27h-4v-3.74h5.24v-1.28H440v12h7v-1.28h-5.6Zm14-6.29H454v12h6.75v-1.28h-5.39Zm8.87,6.29h4v-1.27h-4v-3.74h5.24v-1.28h-6.61v12h7v-1.28h-5.6Zm12-7.37,3.68-1.41a1.12,1.12,0,0,0,.06-.35.61.61,0,0,0-.17-.43.64.64,0,0,0-.47-.17L476,303.89l-.05.12.09.37Zm6.54,4.76a7.05,7.05,0,0,1,.39,2.34,7.23,7.23,0,0,1-.38,2.32,5.6,5.6,0,0,1-1.13,2,5.52,5.52,0,0,1-1.88,1.39,6.82,6.82,0,0,1-5.15,0,5.24,5.24,0,0,1-1.79-1.33,5.59,5.59,0,0,1-1.06-1.95,7.74,7.74,0,0,1,0-4.76,5.85,5.85,0,0,1,1.14-2,5.43,5.43,0,0,1,1.84-1.34,6.67,6.67,0,0,1,5,0,5.43,5.43,0,0,1,1.84,1.34A5.72,5.72,0,0,1,482.71,309.19Zm-1.11,2.39a7.49,7.49,0,0,0-.26-2,4.41,4.41,0,0,0-.81-1.57,3.45,3.45,0,0,0-1.37-1,5,5,0,0,0-2-.37,5,5,0,0,0-2,.36,3.37,3.37,0,0,0-1.33,1,4.26,4.26,0,0,0-.75,1.54,7.65,7.65,0,0,0-.24,2,5.71,5.71,0,0,0,1.1,3.8,4,4,0,0,0,3.17,1.28,4.88,4.88,0,0,0,2-.39,3.65,3.65,0,0,0,1.38-1.06,4.4,4.4,0,0,0,.8-1.57A7.18,7.18,0,0,0,481.6,311.58Zm12.19-6.07v9.87l-6.2-9.87h-1.66v12h1.36V307.7l6.21,9.85h1.66v-12Z"/><path class="cls-22" d="M82.16,111.43l-.07,0a115.44,115.44,0,0,0-17.92,6.14,86.16,86.16,0,0,0-18.92,10.75l-1.27,1a85.59,85.59,0,0,0-18.8,20.15,82.65,82.65,0,0,0-10.86,23.6,14.65,14.65,0,0,1-5.45-.46,13.6,13.6,0,0,1-5.42-3l-.07-.07a12.85,12.85,0,0,1-1.53-1.67l-.14-.18A13.41,13.41,0,0,1,0,164.68c.34-.63.69-1.25,1.05-1.87a101.38,101.38,0,0,1,6.14-9.43c.7-1,1.42-1.9,2.16-2.84,1.37-1.74,2.8-3.45,4.3-5.11l.83-.9c1.27-1.39,2.59-2.74,3.95-4.07a106.66,106.66,0,0,1,10.34-8.82q3-2.22,6.05-4.2l2.07-1.27A129,129,0,0,1,53.19,118,100.3,100.3,0,0,1,82.16,111.43Z"/></g></g></svg>