<?xml version="1.0" encoding="UTF-8" standalone="no"?>
<svg
   xmlns:dc="http://purl.org/dc/elements/1.1/"
   xmlns:cc="http://creativecommons.org/ns#"
   xmlns:rdf="http://www.w3.org/1999/02/22-rdf-syntax-ns#"
   xmlns:svg="http://www.w3.org/2000/svg"
   xmlns="http://www.w3.org/2000/svg"
   xmlns:xlink="http://www.w3.org/1999/xlink"
   xmlns:sodipodi="http://sodipodi.sourceforge.net/DTD/sodipodi-0.dtd"
   xmlns:inkscape="http://www.inkscape.org/namespaces/inkscape"
   inkscape:version="1.0 (4035a4fb49, 2020-05-01)"
   sodipodi:docname="logo-cvdl-bg.svg"
   id="svg472"
   version="1.1"
   viewBox="0 0 495.16 382.7">
  <metadata
     id="metadata476">
    <rdf:RDF>
      <cc:Work
         rdf:about="">
        <dc:format>image/svg+xml</dc:format>
        <dc:type
           rdf:resource="http://purl.org/dc/dcmitype/StillImage" />
      </cc:Work>
    </rdf:RDF>
  </metadata>
  <sodipodi:namedview
     inkscape:current-layer="Layer_2"
     inkscape:window-maximized="1"
     inkscape:window-y="-8"
     inkscape:window-x="-8"
     inkscape:cy="175.52578"
     inkscape:cx="263.29935"
     inkscape:zoom="1.4058009"
     showgrid="false"
     id="namedview474"
     inkscape:window-height="705"
     inkscape:window-width="1366"
     inkscape:pageshadow="2"
     inkscape:pageopacity="0"
     guidetolerance="10"
     gridtolerance="10"
     objecttolerance="10"
     borderopacity="1"
     bordercolor="#666666"
     pagecolor="#ffffff"
     inkscape:document-rotation="0" />
  <defs
     id="defs424">
    <style
       id="style244">.cls-1{fill:url(#linear-gradient);}.cls-2{fill:url(#linear-gradient-2);}.cls-3{fill:url(#Nueva_muestra_de_degradado_26);}.cls-4{fill:url(#linear-gradient-3);}.cls-5{fill:url(#linear-gradient-4);}.cls-6{fill:url(#linear-gradient-5);}.cls-7{fill:url(#linear-gradient-6);}.cls-8{fill:url(#Nueva_muestra_de_degradado_26-2);}.cls-9{fill:url(#linear-gradient-7);}.cls-10{fill:url(#linear-gradient-8);}.cls-11{fill:url(#Nueva_muestra_de_degradado_26-3);}.cls-12{fill:url(#linear-gradient-9);}.cls-13{fill:url(#linear-gradient-10);}.cls-14{fill:url(#linear-gradient-11);}.cls-15{fill:url(#linear-gradient-12);}.cls-16{fill:url(#linear-gradient-13);}.cls-17{fill:url(#Degradado_sin_nombre_854);}.cls-18{fill:url(#linear-gradient-14);}.cls-19{fill:url(#linear-gradient-15);}.cls-20{fill:url(#linear-gradient-16);}.cls-21{fill:url(#linear-gradient-17);}.cls-22{fill:url(#linear-gradient-18);}</style>
    <linearGradient
       gradientUnits="userSpaceOnUse"
       y2="355.91"
       x2="585.39"
       y1="355.91"
       x1="260.48"
       id="linear-gradient">
      <stop
         id="stop246"
         stop-color="#efeded"
         offset="0" />
      <stop
         id="stop248"
         stop-color="#666669"
         offset="0.19" />
      <stop
         id="stop250"
         stop-color="#848789"
         offset="0.46" />
      <stop
         id="stop252"
         stop-color="#504e53"
         offset="0.73" />
      <stop
         id="stop254"
         stop-color="#57565a"
         offset="0.93" />
    </linearGradient>
    <linearGradient
       gradientUnits="userSpaceOnUse"
       y2="239.5"
       x2="178"
       y1="289.76"
       x1="60.54"
       id="linear-gradient-2">
      <stop
         id="stop257"
         stop-color="#4e4d52"
         offset="0.23" />
      <stop
         id="stop259"
         stop-color="#59585d"
         offset="0.26" />
      <stop
         id="stop261"
         stop-color="#78777b"
         offset="0.32" />
      <stop
         id="stop263"
         stop-color="#a9a8aa"
         offset="0.4" />
      <stop
         id="stop265"
         stop-color="#edecec"
         offset="0.5" />
      <stop
         id="stop267"
         stop-color="#f9f8f8"
         offset="0.52" />
      <stop
         id="stop269"
         stop-color="#efeeee"
         offset="0.53" />
      <stop
         id="stop271"
         stop-color="#d6d6d6"
         offset="0.58" />
      <stop
         id="stop273"
         stop-color="#c4c5c5"
         offset="0.63" />
      <stop
         id="stop275"
         stop-color="#b9baba"
         offset="0.68" />
      <stop
         id="stop277"
         stop-color="#b6b7b7"
         offset="0.74" />
      <stop
         id="stop279"
         stop-color="#a2a3a4"
         offset="0.79" />
      <stop
         id="stop281"
         stop-color="#707073"
         offset="0.89" />
      <stop
         id="stop283"
         stop-color="#57575b"
         offset="0.94" />
    </linearGradient>
    <linearGradient
       gradientUnits="userSpaceOnUse"
       y2="259.47"
       x2="132.49"
       y1="259.47"
       x1="8.53"
       id="Nueva_muestra_de_degradado_26">
      <stop
         id="stop286"
         stop-color="#8c9096"
         offset="0.01" />
      <stop
         id="stop288"
         stop-color="#979c9c"
         offset="0.26" />
      <stop
         id="stop290"
         stop-color="#fff"
         offset="0.47" />
      <stop
         id="stop292"
         stop-color="#d3d5d5"
         offset="0.56" />
      <stop
         id="stop294"
         stop-color="#979c9c"
         offset="0.69" />
      <stop
         id="stop296"
         stop-color="#2d292f"
         offset="1" />
    </linearGradient>
    <linearGradient
       gradientUnits="userSpaceOnUse"
       y2="303.46"
       x2="18.69"
       y1="106.8"
       x1="160.12"
       id="linear-gradient-3">
      <stop
         id="stop299"
         stop-color="#eeecec"
         offset="0" />
      <stop
         id="stop301"
         stop-color="#727074"
         offset="0.2" />
      <stop
         id="stop303"
         stop-color="#38363c"
         offset="0.3" />
      <stop
         id="stop305"
         stop-color="#3e3c42"
         offset="0.36" />
      <stop
         id="stop307"
         stop-color="#4f4d52"
         offset="0.44" />
      <stop
         id="stop309"
         stop-color="#6c6a6e"
         offset="0.53" />
      <stop
         id="stop311"
         stop-color="#949293"
         offset="0.63" />
      <stop
         id="stop313"
         stop-color="#c6c4c3"
         offset="0.74" />
      <stop
         id="stop315"
         stop-color="#d0cecd"
         offset="0.76" />
      <stop
         id="stop317"
         stop-color="#a9a8a8"
         offset="0.81" />
      <stop
         id="stop319"
         stop-color="#878688"
         offset="0.86" />
      <stop
         id="stop321"
         stop-color="#6e6e70"
         offset="0.91" />
      <stop
         id="stop323"
         stop-color="#5f5f62"
         offset="0.96" />
      <stop
         id="stop325"
         stop-color="#5a5a5d"
         offset="1" />
    </linearGradient>
    <linearGradient
       gradientUnits="userSpaceOnUse"
       y2="75.37"
       x2="356.69"
       y1="257.93"
       x1="71.94"
       id="linear-gradient-4">
      <stop
         id="stop328"
         stop-color="#4c4a4f"
         offset="0" />
      <stop
         id="stop330"
         stop-color="#514f54"
         offset="0.03" />
      <stop
         id="stop332"
         stop-color="#615f63"
         offset="0.06" />
      <stop
         id="stop334"
         stop-color="#7b797c"
         offset="0.1" />
      <stop
         id="stop336"
         stop-color="#9f9d9e"
         offset="0.15" />
      <stop
         id="stop338"
         stop-color="#cccac9"
         offset="0.19" />
      <stop
         id="stop340"
         stop-color="#d0cecd"
         offset="0.19" />
      <stop
         id="stop342"
         stop-color="#c5c4c3"
         offset="0.21" />
      <stop
         id="stop344"
         stop-color="#949394"
         offset="0.29" />
      <stop
         id="stop346"
         stop-color="#757577"
         offset="0.35" />
      <stop
         id="stop348"
         stop-color="#6a6a6c"
         offset="0.39" />
      <stop
         id="stop350"
         stop-color="#f1efee"
         offset="0.59" />
      <stop
         id="stop352"
         stop-color="#4c4a4f"
         offset="0.83" />
    </linearGradient>
    <linearGradient
       xlink:href="#linear-gradient-4"
       y2="209.83"
       x2="405.09"
       y1="292.33"
       x1="271.21"
       id="linear-gradient-5" />
    <linearGradient
       xlink:href="#linear-gradient-4"
       y2="98.4"
       x2="481"
       y1="222.81"
       x1="252.09"
       id="linear-gradient-6" />
    <linearGradient
       xlink:href="#Nueva_muestra_de_degradado_26"
       y2="213.85"
       x2="402.71"
       y1="269.63"
       x1="183.99"
       id="Nueva_muestra_de_degradado_26-2" />
    <linearGradient
       xlink:href="#linear-gradient"
       y2="282.36"
       x2="164.8"
       y1="201.48"
       x1="333.16"
       id="linear-gradient-7" />
    <linearGradient
       xlink:href="#linear-gradient-4"
       y2="119.31"
       x2="641.56"
       y1="249.64"
       x1="384.93"
       id="linear-gradient-8" />
    <linearGradient
       xlink:href="#Nueva_muestra_de_degradado_26"
       y2="216.43"
       x2="184.16"
       y1="216.43"
       x1="21.93"
       id="Nueva_muestra_de_degradado_26-3" />
    <linearGradient
       xlink:href="#linear-gradient"
       y2="70.66"
       x2="242.37"
       y1="130.02"
       x1="111.48"
       id="linear-gradient-9" />
    <linearGradient
       gradientUnits="userSpaceOnUse"
       y2="10.94"
       x2="15.77"
       y1="128.78"
       x1="149.77"
       id="linear-gradient-10">
      <stop
         id="stop362"
         stop-color="#969b9d"
         offset="0.01" />
      <stop
         id="stop364"
         stop-color="#888c8e"
         offset="0.08" />
      <stop
         id="stop366"
         stop-color="#636368"
         offset="0.21" />
      <stop
         id="stop368"
         stop-color="#444248"
         offset="0.31" />
      <stop
         id="stop370"
         stop-color="#46444a"
         offset="0.43" />
      <stop
         id="stop372"
         stop-color="#4d4b50"
         offset="0.47" />
      <stop
         id="stop374"
         stop-color="#58565b"
         offset="0.5" />
      <stop
         id="stop376"
         stop-color="#69676b"
         offset="0.52" />
      <stop
         id="stop378"
         stop-color="#7f7d80"
         offset="0.54" />
      <stop
         id="stop380"
         stop-color="#9a999a"
         offset="0.56" />
      <stop
         id="stop382"
         stop-color="#b9b8b8"
         offset="0.58" />
      <stop
         id="stop384"
         stop-color="#c7c6c5"
         offset="0.58" />
      <stop
         id="stop386"
         stop-color="#c4c3c2"
         offset="0.67" />
      <stop
         id="stop388"
         stop-color="#bab9b9"
         offset="0.74" />
      <stop
         id="stop390"
         stop-color="#a9a8a9"
         offset="0.8" />
      <stop
         id="stop392"
         stop-color="#929092"
         offset="0.86" />
      <stop
         id="stop394"
         stop-color="#747275"
         offset="0.92" />
      <stop
         id="stop396"
         stop-color="#4f4d52"
         offset="0.98" />
      <stop
         id="stop398"
         stop-color="#3d3b41"
         offset="1" />
    </linearGradient>
    <linearGradient
       xlink:href="#linear-gradient"
       y2="152.57"
       x2="12.11"
       y1="51.47"
       x1="105.32"
       id="linear-gradient-11" />
    <linearGradient
       xlink:href="#linear-gradient"
       y2="69.07"
       x2="37.63"
       y1="28.13"
       x1="79.9"
       id="linear-gradient-12" />
    <linearGradient
       xlink:href="#linear-gradient"
       y2="-3.3"
       x2="115.53"
       y1="74.6"
       x1="22.58"
       id="linear-gradient-13" />
    <linearGradient
       gradientUnits="userSpaceOnUse"
       y2="92.65"
       x2="74.98"
       y1="35.97"
       x1="158.7"
       id="Degradado_sin_nombre_854">
      <stop
         id="stop404"
         stop-color="#8c9096"
         offset="0.01" />
      <stop
         id="stop406"
         stop-color="#979c9c"
         offset="0.26" />
      <stop
         id="stop408"
         stop-color="#fff"
         offset="0.47" />
      <stop
         id="stop410"
         stop-color="#f2f1f1"
         offset="0.49" />
      <stop
         id="stop412"
         stop-color="#d3d4d4"
         offset="0.56" />
      <stop
         id="stop414"
         stop-color="#979c9c"
         offset="0.69" />
      <stop
         id="stop416"
         stop-color="#2d292f"
         offset="1" />
    </linearGradient>
    <linearGradient
       xlink:href="#linear-gradient-4"
       y2="147.13"
       x2="177.48"
       y1="42.9"
       x1="105.75"
       id="linear-gradient-14" />
    <linearGradient
       xlink:href="#linear-gradient"
       y2="16.05"
       x2="225.05"
       y1="49.22"
       x1="129.19"
       id="linear-gradient-15" />
    <linearGradient
       xlink:href="#linear-gradient"
       y2="36.67"
       x2="110.34"
       y1="-15.52"
       x1="206.92"
       id="linear-gradient-16" />
    <linearGradient
       xlink:href="#linear-gradient"
       y2="645.38"
       x2="200.23"
       y1="57.33"
       x1="472.96"
       id="linear-gradient-17" />
    <linearGradient
       xlink:href="#linear-gradient"
       gradientTransform="matrix(0.85, -0.64, 0.6, 0.8, -379.77, -1199.61)"
       y2="1371.03"
       x2="-480.26"
       y1="1271.82"
       x1="-388.79"
       id="linear-gradient-18" />
  </defs>
  <g
     data-name="Layer 2"
     id="Layer_2">
    <g
       data-name="Capa 1"
       id="Capa_1">
      <path
         style="fill:#272a31;fill-opacity:1;opacity:0.05"
         id="path428"
         d="M151.91,278.89c-1.41.81-2.84,1.59-4.3,2.31h0a79.93,79.93,0,0,1-7.82,3.4,82,82,0,0,1-87.86-20A83.21,83.21,0,0,0,135,249.43l13.89,24.23,1.8,3.14Z"
         class="cls-2" />
      <path
         id="path430"
         d="M135,249.43a83.21,83.21,0,0,1-83.09,15.15,79.94,79.94,0,0,1-7.66-9.26,85.43,85.43,0,0,0,90.65-6.06Z"
         class="cls-3"
         style="opacity:0.05" />
      <path
         style="fill:#272a31;fill-opacity:1;opacity:0.05"
         id="path432"
         d="M134.92,249.26a85.43,85.43,0,0,1-90.65,6.06,81.85,81.85,0,0,1,6.4-102.74,83.95,83.95,0,0,1,82.42,13,47.71,47.71,0,1,0,1.82,83.65Z"
         class="cls-4" />
      <path
         style="fill:#272a31;fill-opacity:1;opacity:0.05"
         id="path434"
         d="M232.62,255.42l-19.71,34.37v0l-19.7-34.35L185.53,242,165.7,207.44l-3.3-5.76-8.65-15.1,0-.08a50.43,50.43,0,0,0-2.56-4.46h0c-.42-.65-.85-1.29-1.3-1.92a0,0,0,0,1,0,0,83.25,83.25,0,0,0-93-33.55A81.56,81.56,0,0,1,111.05,126a79.46,79.46,0,0,1,8.21.41,81.37,81.37,0,0,1,42.8,17.42,82.28,82.28,0,0,1,18.28,20.38l0,.05,3.45,6,.07.12,29,50.64,19.7,34.35Z"
         class="cls-5" />
      <path
         style="fill:#272a31;fill-opacity:1;opacity:0.05"
         id="path436"
         d="M396.72,207.91a81.9,81.9,0,0,1-81.91,81.89h-.68A81.31,81.31,0,0,1,279.94,282V248.3a82.69,82.69,0,0,0,33.64,7.3h2.24l1.45,0,.26,0a83.12,83.12,0,0,0,76.84-61.39c.25-.9.48-1.8.69-2.72,0,.13.05.26.07.39A81.32,81.32,0,0,1,396.72,207.91Z"
         class="cls-6" />
      <path
         style="fill:#272a31;fill-opacity:1;opacity:0.05"
         id="path438"
         d="M395.06,191.42c-.21.92-.44,1.82-.69,2.72a85.1,85.1,0,0,1-51.27,52.19,47.71,47.71,0,1,0-61.41-72.76c-.59.58-1.18,1.18-1.75,1.79a46.75,46.75,0,0,0-5.66,7.38l0,.08c-.58.93-1.12,1.87-1.63,2.84l0,.05L251,223.33l-1.12,1.94L240.31,242l-7.69,13.44L212.91,221l19-33.15.36-.63,10.29-18,.06-.08,2.15-3.78,0-.09a81.9,81.9,0,0,1,61.74-38.93,80.38,80.38,0,0,1,8.25-.41A81.93,81.93,0,0,1,395.06,191.42Z"
         class="cls-7" />
      <path
         id="path440"
         d="M394.37,194.14a83.12,83.12,0,0,1-76.84,61.39l-.26,0-1.45,0h-2.24a82.69,82.69,0,0,1-33.64-7.3v-4a84.51,84.51,0,0,0,34.15,7.15h0a84.79,84.79,0,0,0,80.24-57.28Z"
         class="cls-8"
         style="opacity:0.05" />
      <path
         style="fill:#272a31;fill-opacity:1;opacity:0.05"
         id="path442"
         d="M314.13,173.57v77.85h0a84.51,84.51,0,0,1-34.15-7.15V205.92A34.27,34.27,0,0,1,314.13,173.57Z"
         class="cls-9" />
      <path
         style="fill:#272a31;fill-opacity:1;opacity:0.05"
         id="path444"
         d="M495.16,289.8H429.88a16.32,16.32,0,0,1-3.24-.38,17.11,17.11,0,0,1-13.41-16.26V158a34.25,34.25,0,0,1,32-32h2.2v129.6H463.1A34.27,34.27,0,0,1,495.16,289.8Z"
         class="cls-10" />
      <path
         id="path446"
         d="M212.9,289.77l-58.41-98.38c-.75-1.43-1.56-2.83-2.4-4.2l-1.44-2.51-.12.06a84.58,84.58,0,0,0-17.44-19.16,83.95,83.95,0,0,0-82.42-13,79.44,79.44,0,0,1,6.14-6,83.25,83.25,0,0,1,93,33.55,0,0,0,0,0,0,0c.45.63.88,1.27,1.3,1.92h0a50.43,50.43,0,0,1,2.56,4.46l0,.08,8.65,15.1,3.3,5.76L185.53,242l7.67,13.4Z"
         class="cls-11"
         style="opacity:0.05" />
    </g>
  </g>
</svg>
