<?xml version="1.0" encoding="UTF-8" standalone="no"?>
<svg
   xmlns:dc="http://purl.org/dc/elements/1.1/"
   xmlns:cc="http://creativecommons.org/ns#"
   xmlns:rdf="http://www.w3.org/1999/02/22-rdf-syntax-ns#"
   xmlns:svg="http://www.w3.org/2000/svg"
   xmlns="http://www.w3.org/2000/svg"
   xmlns:sodipodi="http://sodipodi.sourceforge.net/DTD/sodipodi-0.dtd"
   xmlns:inkscape="http://www.inkscape.org/namespaces/inkscape"
   aria-hidden="true"
   focusable="false"
   data-prefix="fas"
   data-icon="ticket-alt"
   class="svg-inline--fa fa-ticket-alt fa-w-18"
   role="img"
   viewBox="0 0 576 512"
   version="1.1"
   id="svg4"
   sodipodi:docname="ticket.svg"
   inkscape:version="1.0 (4035a4fb49, 2020-05-01)">
  <metadata
     id="metadata10">
    <rdf:RDF>
      <cc:Work
         rdf:about="">
        <dc:format>image/svg+xml</dc:format>
        <dc:type
           rdf:resource="http://purl.org/dc/dcmitype/StillImage" />
      </cc:Work>
    </rdf:RDF>
  </metadata>
  <defs
     id="defs8" />
  <sodipodi:namedview
     inkscape:document-rotation="0"
     pagecolor="#ffffff"
     bordercolor="#666666"
     borderopacity="1"
     objecttolerance="10"
     gridtolerance="10"
     guidetolerance="10"
     inkscape:pageopacity="0"
     inkscape:pageshadow="2"
     inkscape:window-width="1366"
     inkscape:window-height="705"
     id="namedview6"
     showgrid="false"
     inkscape:zoom="1.0507812"
     inkscape:cx="288"
     inkscape:cy="408.26766"
     inkscape:window-x="-8"
     inkscape:window-y="-8"
     inkscape:window-maximized="1"
     inkscape:current-layer="svg4" />
  <g
     id="g862">
    <path
       style="fill:#ffffff"
       sodipodi:nodetypes="scsssscscsssscssssssssss"
       id="path2"
       d="m 528,256 c 0,26.51 21.49,48 48,48 v 96 c 0,26.51 -21.49,48 -48,48 H 48 C 21.49,448 0,426.51 0,400 V 304 C 26.51,304 48,282.51 48,256 48,229.49 26.51,208 0,208 V 112 C 0,85.49 21.49,64 48,64 h 480 c 26.51,0 48,21.49 48,48 v 96 c -26.51,0 -48,21.49 -48,48 z M 480,152 c 0,-13.255 -10.745,-24 -24,-24 H 120 c -13.255,0 -24,10.745 -24,24 v 208 c 0,13.255 10.745,24 24,24 h 336 c 13.255,0 24,-10.745 24,-24 z"
       fill="currentColor" />
  </g>
  <rect
     style="opacity:1;fill:#ec5242;fill-rule:evenodd;fill-opacity:1"
     id="rect871"
     width="307.39035"
     height="179.86617"
     x="135.13754"
     y="167.49443"
     rx="0"
     ry="2.85501" />
</svg>
